<svg version="1.1" xmlns="http://www.w3.org/2000/svg" xmlns:xlink="http://www.w3.org/1999/xlink" width="1395" height="900"><defs><clipPath id="FirKsDCQCyRt"><path fill="none" stroke="none" d=" M 0 0 L 1395 0 L 1395 900 L 0 900 L 0 0 Z"/></clipPath></defs><g transform="scale(1,1)" clip-path="url(#FirKsDCQCyRt)"><g><rect fill="rgb(255,255,255)" stroke="none" x="0" y="0" width="1395" height="900" fill-opacity="1"/><path fill="none" stroke="rgb(180,179,186)" paint-order="fill stroke markers" d=" M 86.5 0.5 L 86.5 900.5 M 86.5 0.5 L 86.5 900.5 M 181.5 0.5 L 181.5 900.5 M 277.5 0.5 L 277.5 900.5 M 372.5 0.5 L 372.5 900.5 M 562.5 0.5 L 562.5 900.5 M 657.5 0.5 L 657.5 900.5 M 753.5 0.5 L 753.5 900.5 M 848.5 0.5 L 848.5 900.5 M 943.5 0.5 L 943.5 900.5 M 1038.5 0.5 L 1038.5 900.5 M 1134.5 0.5 L 1134.5 900.5 M 1229.5 0.5 L 1229.5 900.5 M 1324.5 0.5 L 1324.5 900.5" stroke-opacity="1" stroke-linecap="round" stroke-linejoin="round" stroke-miterlimit="10"/><path fill="none" stroke="rgb(180,179,186)" paint-order="fill stroke markers" d="" stroke-opacity="0.23529411764705882" stroke-linecap="round" stroke-linejoin="round" stroke-miterlimit="10"/><path fill="none" stroke="rgb(180,179,186)" paint-order="fill stroke markers" d=" M 0.5 74.5 L 1395.5 74.5 M 0.5 74.5 L 1395.5 74.5 M 0.5 169.5 L 1395.5 169.5 M 0.5 264.5 L 1395.5 264.5 M 0.5 359.5 L 1395.5 359.5 M 0.5 455.5 L 1395.5 455.5 M 0.5 645.5 L 1395.5 645.5 M 0.5 740.5 L 1395.5 740.5 M 0.5 836.5 L 1395.5 836.5" stroke-opacity="1" stroke-linecap="round" stroke-linejoin="round" stroke-miterlimit="10"/><path fill="none" stroke="rgb(180,179,186)" paint-order="fill stroke markers" d="" stroke-opacity="0.23529411764705882" stroke-linecap="round" stroke-linejoin="round" stroke-miterlimit="10"/><path fill="none" stroke="rgb(28,28,31)" paint-order="fill stroke markers" d=" M 468 3 L 468 900" stroke-opacity="1" stroke-miterlimit="10" stroke-width="2"/><path fill="none" stroke="rgb(28,28,31)" paint-order="fill stroke markers" d=" M 468 2 L 463 7" stroke-opacity="1" stroke-miterlimit="10" stroke-width="2"/><path fill="none" stroke="rgb(28,28,31)" paint-order="fill stroke markers" d=" M 468 2 L 473 7" stroke-opacity="1" stroke-miterlimit="10" stroke-width="2"/><path fill="none" stroke="rgb(28,28,31)" paint-order="fill stroke markers" d=" M 0 550 L 1392 550" stroke-opacity="1" stroke-miterlimit="10" stroke-width="2"/><path fill="none" stroke="rgb(28,28,31)" paint-order="fill stroke markers" d=" M 1393 550 L 1388 545" stroke-opacity="1" stroke-miterlimit="10" stroke-width="2"/><path fill="none" stroke="rgb(28,28,31)" paint-order="fill stroke markers" d=" M 1393 550 L 1388 555" stroke-opacity="1" stroke-miterlimit="10" stroke-width="2"/><text fill="rgb(28,28,31)" stroke="none" font-family="geogebra-sans-serif, sans-serif" font-size="12px" font-style="normal" font-weight="bold" text-decoration="normal" x="80" y="566" text-anchor="start" dominant-baseline="alphabetic" fill-opacity="1">–4</text><text fill="rgb(28,28,31)" stroke="none" font-family="geogebra-sans-serif, sans-serif" font-size="12px" font-style="normal" font-weight="bold" text-decoration="normal" x="175" y="566" text-anchor="start" dominant-baseline="alphabetic" fill-opacity="1">–3</text><text fill="rgb(28,28,31)" stroke="none" font-family="geogebra-sans-serif, sans-serif" font-size="12px" font-style="normal" font-weight="bold" text-decoration="normal" x="270" y="566" text-anchor="start" dominant-baseline="alphabetic" fill-opacity="1">–2</text><text fill="rgb(28,28,31)" stroke="none" font-family="geogebra-sans-serif, sans-serif" font-size="12px" font-style="normal" font-weight="bold" text-decoration="normal" x="366" y="566" text-anchor="start" dominant-baseline="alphabetic" fill-opacity="1">–1</text><text fill="rgb(28,28,31)" stroke="none" font-family="geogebra-sans-serif, sans-serif" font-size="12px" font-style="normal" font-weight="bold" text-decoration="normal" x="560" y="566" text-anchor="start" dominant-baseline="alphabetic" fill-opacity="1">1</text><text fill="rgb(28,28,31)" stroke="none" font-family="geogebra-sans-serif, sans-serif" font-size="12px" font-style="normal" font-weight="bold" text-decoration="normal" x="655" y="566" text-anchor="start" dominant-baseline="alphabetic" fill-opacity="1">2</text><text fill="rgb(28,28,31)" stroke="none" font-family="geogebra-sans-serif, sans-serif" font-size="12px" font-style="normal" font-weight="bold" text-decoration="normal" x="750" y="566" text-anchor="start" dominant-baseline="alphabetic" fill-opacity="1">3</text><text fill="rgb(28,28,31)" stroke="none" font-family="geogebra-sans-serif, sans-serif" font-size="12px" font-style="normal" font-weight="bold" text-decoration="normal" x="845" y="566" text-anchor="start" dominant-baseline="alphabetic" fill-opacity="1">4</text><text fill="rgb(28,28,31)" stroke="none" font-family="geogebra-sans-serif, sans-serif" font-size="12px" font-style="normal" font-weight="bold" text-decoration="normal" x="941" y="566" text-anchor="start" dominant-baseline="alphabetic" fill-opacity="1">5</text><text fill="rgb(28,28,31)" stroke="none" font-family="geogebra-sans-serif, sans-serif" font-size="12px" font-style="normal" font-weight="bold" text-decoration="normal" x="1036" y="566" text-anchor="start" dominant-baseline="alphabetic" fill-opacity="1">6</text><text fill="rgb(28,28,31)" stroke="none" font-family="geogebra-sans-serif, sans-serif" font-size="12px" font-style="normal" font-weight="bold" text-decoration="normal" x="1131" y="566" text-anchor="start" dominant-baseline="alphabetic" fill-opacity="1">7</text><text fill="rgb(28,28,31)" stroke="none" font-family="geogebra-sans-serif, sans-serif" font-size="12px" font-style="normal" font-weight="bold" text-decoration="normal" x="1226" y="566" text-anchor="start" dominant-baseline="alphabetic" fill-opacity="1">8</text><text fill="rgb(28,28,31)" stroke="none" font-family="geogebra-sans-serif, sans-serif" font-size="12px" font-style="normal" font-weight="bold" text-decoration="normal" x="1321" y="566" text-anchor="start" dominant-baseline="alphabetic" fill-opacity="1">9</text><text fill="rgb(28,28,31)" stroke="none" font-family="geogebra-sans-serif, sans-serif" font-size="12px" font-style="normal" font-weight="bold" text-decoration="normal" x="447" y="841" text-anchor="start" dominant-baseline="alphabetic" fill-opacity="1">–3</text><text fill="rgb(28,28,31)" stroke="none" font-family="geogebra-sans-serif, sans-serif" font-size="12px" font-style="normal" font-weight="bold" text-decoration="normal" x="447" y="745" text-anchor="start" dominant-baseline="alphabetic" fill-opacity="1">–2</text><text fill="rgb(28,28,31)" stroke="none" font-family="geogebra-sans-serif, sans-serif" font-size="12px" font-style="normal" font-weight="bold" text-decoration="normal" x="447" y="650" text-anchor="start" dominant-baseline="alphabetic" fill-opacity="1">–1</text><text fill="rgb(28,28,31)" stroke="none" font-family="geogebra-sans-serif, sans-serif" font-size="12px" font-style="normal" font-weight="bold" text-decoration="normal" x="453" y="460" text-anchor="start" dominant-baseline="alphabetic" fill-opacity="1">1</text><text fill="rgb(28,28,31)" stroke="none" font-family="geogebra-sans-serif, sans-serif" font-size="12px" font-style="normal" font-weight="bold" text-decoration="normal" x="453" y="364" text-anchor="start" dominant-baseline="alphabetic" fill-opacity="1">2</text><text fill="rgb(28,28,31)" stroke="none" font-family="geogebra-sans-serif, sans-serif" font-size="12px" font-style="normal" font-weight="bold" text-decoration="normal" x="453" y="269" text-anchor="start" dominant-baseline="alphabetic" fill-opacity="1">3</text><text fill="rgb(28,28,31)" stroke="none" font-family="geogebra-sans-serif, sans-serif" font-size="12px" font-style="normal" font-weight="bold" text-decoration="normal" x="453" y="174" text-anchor="start" dominant-baseline="alphabetic" fill-opacity="1">4</text><text fill="rgb(28,28,31)" stroke="none" font-family="geogebra-sans-serif, sans-serif" font-size="12px" font-style="normal" font-weight="bold" text-decoration="normal" x="453" y="79" text-anchor="start" dominant-baseline="alphabetic" fill-opacity="1">5</text><text fill="rgb(28,28,31)" stroke="none" font-family="geogebra-sans-serif, sans-serif" font-size="12px" font-style="normal" font-weight="bold" text-decoration="normal" x="453" y="566" text-anchor="start" dominant-baseline="alphabetic" fill-opacity="1">0</text><path fill="none" stroke="rgb(21,101,192)" paint-order="fill stroke markers" d=" M 0.5 1579.6622861173703 L 0.5 1581.6622861173703 L 0.5 1579.6622861173703 L 1.5 1577.66228611737 L 1.51 1577.66228611737 L 2.5 1575.66228611737 L 2.51 1575.66228611737 L 3.500000000000057 1573.66228611737 L 3.5100000000000566 1573.66228611737 L 4.500000000000057 1571.66228611737 L 4.510000000000057 1571.66228611737 L 5.5 1569.66228611737 L 5.51 1569.66228611737 L 6.5 1567.66228611737 L 6.51 1567.66228611737 L 7.5 1565.66228611737 L 7.51 1565.66228611737 L 8.5 1563.66228611737 L 8.51 1563.66228611737 L 9.5 1561.66228611737 L 9.51 1561.66228611737 L 10.500000000000057 1559.66228611737 L 10.510000000000057 1559.66228611737 L 11.499999999999943 1557.66228611737 L 11.509999999999943 1557.66228611737 L 12.5 1555.66228611737 L 12.51 1555.66228611737 L 13.5 1553.66228611737 L 13.51 1553.66228611737 L 14.5 1551.66228611737 L 14.51 1551.66228611737 L 15.5 1549.66228611737 L 15.51 1549.66228611737 L 16.500000000000057 1547.66228611737 L 16.51000000000006 1547.66228611737 L 17.500000000000057 1545.66228611737 L 17.51000000000006 1545.66228611737 L 18.499999999999943 1543.66228611737 L 18.509999999999945 1543.66228611737 L 19.5 1541.66228611737 L 19.51 1541.66228611737 L 20.5 1539.66228611737 L 20.51 1539.66228611737 L 21.5 1537.66228611737 L 21.51 1537.66228611737 L 22.5 1535.66228611737 L 22.51 1535.66228611737 L 23.500000000000057 1533.66228611737 L 23.51000000000006 1533.66228611737 L 24.500000000000057 1531.66228611737 L 24.51000000000006 1531.66228611737 L 25.499999999999943 1529.66228611737 L 25.509999999999945 1529.66228611737 L 26.5 1527.66228611737 L 26.51 1527.66228611737 L 27.5 1525.66228611737 L 27.51 1525.66228611737 L 28.5 1523.66228611737 L 28.51 1523.66228611737 L 29.5 1521.66228611737 L 29.51 1521.66228611737 L 30.500000000000057 1519.66228611737 L 30.51000000000006 1519.66228611737 L 31.500000000000057 1517.66228611737 L 31.51000000000006 1517.66228611737 L 32.5 1515.66228611737 L 32.51 1515.66228611737 L 33.5 1513.66228611737 L 33.51 1513.66228611737 L 34.5 1511.66228611737 L 34.51 1511.66228611737 L 35.5 1509.66228611737 L 35.51 1509.66228611737 L 36.5 1507.66228611737 L 36.51 1507.66228611737 L 37.50000000000006 1505.66228611737 L 37.510000000000055 1505.66228611737 L 38.50000000000006 1503.66228611737 L 38.510000000000055 1503.66228611737 L 39.5 1501.66228611737 L 39.51 1501.66228611737 L 40.5 1499.66228611737 L 40.51 1499.66228611737 L 41.5 1497.66228611737 L 41.51 1497.66228611737 L 42.5 1495.66228611737 L 42.51 1495.66228611737 L 43.5 1493.66228611737 L 43.51 1493.66228611737 L 44.50000000000006 1491.66228611737 L 44.510000000000055 1491.66228611737 L 45.50000000000006 1489.66228611737 L 45.510000000000055 1489.66228611737 L 46.5 1487.66228611737 L 46.51 1487.66228611737 L 47.5 1485.66228611737 L 47.51 1485.66228611737 L 48.5 1483.66228611737 L 48.51 1483.66228611737 L 49.5 1481.66228611737 L 49.51 1481.66228611737 L 50.5 1479.66228611737 L 50.51 1479.66228611737 L 51.50000000000006 1477.66228611737 L 51.510000000000055 1477.66228611737 L 52.49999999999994 1475.66228611737 L 52.50999999999994 1475.66228611737 L 53.5 1473.66228611737 L 53.51 1473.66228611737 L 54.5 1471.66228611737 L 54.51 1471.66228611737 L 55.5 1469.66228611737 L 55.51 1469.66228611737 L 56.5 1467.66228611737 L 56.51 1467.66228611737 L 57.5 1465.66228611737 L 57.51 1465.66228611737 L 58.50000000000006 1463.66228611737 L 58.510000000000055 1463.66228611737 L 59.49999999999994 1461.66228611737 L 59.50999999999994 1461.66228611737 L 60.5 1459.66228611737 L 60.51 1459.66228611737 L 61.5 1457.66228611737 L 61.51 1457.66228611737 L 62.5 1455.66228611737 L 62.51 1455.66228611737 L 63.5 1453.66228611737 L 63.51 1453.66228611737 L 64.50000000000006 1451.66228611737 L 64.51000000000006 1451.66228611737 L 65.50000000000006 1449.66228611737 L 65.51000000000006 1449.66228611737 L 66.49999999999994 1447.66228611737 L 66.50999999999995 1447.66228611737 L 67.5 1445.66228611737 L 67.51 1445.66228611737 L 68.5 1443.66228611737 L 68.51 1443.66228611737 L 69.5 1441.66228611737 L 69.51 1441.66228611737 L 70.5 1439.66228611737 L 70.51 1439.66228611737 L 71.50000000000006 1437.66228611737 L 71.51000000000006 1437.66228611737 L 72.50000000000006 1435.66228611737 L 72.51000000000006 1435.66228611737 L 73.5 1433.66228611737 L 73.51 1433.66228611737 L 74.5 1431.66228611737 L 74.51 1431.66228611737 L 75.5 1429.66228611737 L 75.51 1429.66228611737 L 76.5 1427.66228611737 L 76.51 1427.66228611737 L 77.5 1425.66228611737 L 77.51 1425.66228611737 L 78.50000000000006 1423.66228611737 L 78.51000000000006 1423.66228611737 L 79.50000000000006 1421.66228611737 L 79.51000000000006 1421.66228611737 L 80.5 1419.66228611737 L 80.51 1419.66228611737 L 81.5 1417.66228611737 L 81.51 1417.66228611737 L 82.5 1415.66228611737 L 82.51 1415.66228611737 L 83.5 1413.66228611737 L 83.51 1413.66228611737 L 84.5 1411.66228611737 L 84.51 1411.66228611737 L 85.50000000000006 1409.66228611737 L 85.51000000000006 1409.66228611737 L 86.50000000000006 1407.66228611737 L 86.51000000000006 1407.66228611737 L 87.5 1405.66228611737 L 87.51 1405.66228611737 L 88.5 1403.66228611737 L 88.51 1403.66228611737 L 89.5 1401.66228611737 L 89.51 1401.66228611737 L 90.5 1399.66228611737 L 90.51 1399.66228611737 L 91.5 1397.66228611737 L 91.51 1397.66228611737 L 92.50000000000006 1395.66228611737 L 92.51000000000006 1395.66228611737 L 93.49999999999994 1393.66228611737 L 93.50999999999995 1393.66228611737 L 94.5 1391.66228611737 L 94.51 1391.66228611737 L 95.5 1389.66228611737 L 95.51 1389.66228611737 L 96.5 1387.66228611737 L 96.51 1387.66228611737 L 97.5 1385.66228611737 L 97.51 1385.66228611737 L 98.5 1383.66228611737 L 98.51 1383.66228611737 L 99.50000000000006 1381.66228611737 L 99.51000000000006 1381.66228611737 L 100.49999999999994 1379.66228611737 L 100.50999999999995 1379.66228611737 L 101.5 1377.66228611737 L 101.51 1377.66228611737 L 102.5 1375.66228611737 L 102.51 1375.66228611737 L 103.5 1373.66228611737 L 103.51 1373.66228611737 L 104.5 1371.66228611737 L 104.51 1371.66228611737 L 105.50000000000006 1369.66228611737 L 105.51000000000006 1369.66228611737 L 106.50000000000006 1367.6622861173698 L 106.51000000000006 1367.6622861173698 L 107.49999999999994 1365.66228611737 L 107.50999999999995 1365.66228611737 L 108.5 1363.66228611737 L 108.51 1363.66228611737 L 109.5 1361.66228611737 L 109.51 1361.66228611737 L 110.5 1359.66228611737 L 110.51 1359.66228611737 L 111.5 1357.66228611737 L 111.51 1357.66228611737 L 112.50000000000006 1355.6622861173698 L 112.51000000000006 1355.6622861173698 L 113.50000000000006 1353.6622861173698 L 113.51000000000006 1353.6622861173698 L 114.49999999999994 1351.66228611737 L 114.50999999999995 1351.66228611737 L 115.5 1349.66228611737 L 115.51 1349.66228611737 L 116.5 1347.66228611737 L 116.51 1347.66228611737 L 117.5 1345.66228611737 L 117.51 1345.66228611737 L 118.5 1343.66228611737 L 118.51 1343.66228611737 L 119.50000000000006 1341.6622861173698 L 119.51000000000006 1341.6622861173698 L 120.50000000000006 1339.6622861173698 L 120.51000000000006 1339.6622861173698 L 121.5 1337.66228611737 L 121.51 1337.66228611737 L 122.5 1335.66228611737 L 122.51 1335.66228611737 L 123.5 1333.66228611737 L 123.51 1333.66228611737 L 124.5 1331.66228611737 L 124.51 1331.66228611737 L 125.5 1329.6622861173698 L 125.51 1329.6622861173698 L 126.50000000000006 1327.6622861173698 L 126.51000000000006 1327.6622861173698 L 127.49999999999994 1325.66228611737 L 127.50999999999995 1325.66228611737 L 128.5 1323.66228611737 L 128.51 1323.66228611737 L 129.5 1321.66228611737 L 129.51 1321.66228611737 L 130.5 1319.66228611737 L 130.51 1319.66228611737 L 131.5 1317.6622861173698 L 131.51 1317.6622861173698 L 132.5 1315.6622861173698 L 132.51 1315.6622861173698 L 133.50000000000006 1313.6622861173698 L 133.51000000000005 1313.6622861173698 L 134.49999999999994 1311.66228611737 L 134.50999999999993 1311.66228611737 L 135.5 1309.66228611737 L 135.51 1309.66228611737 L 136.5 1307.66228611737 L 136.51 1307.66228611737 L 137.5 1305.66228611737 L 137.51 1305.66228611737 L 138.5 1303.6622861173698 L 138.51 1303.6622861173698 L 139.5 1301.6622861173698 L 139.51 1301.6622861173698 L 140.50000000000006 1299.6622861173698 L 140.51000000000005 1299.6622861173698 L 141.49999999999994 1297.66228611737 L 141.50999999999993 1297.66228611737 L 142.5 1295.66228611737 L 142.51 1295.66228611737 L 143.5 1293.66228611737 L 143.51 1293.66228611737 L 144.5 1291.6622861173698 L 144.51 1291.6622861173698 L 145.5 1289.6622861173698 L 145.51 1289.6622861173698 L 146.5 1287.6622861173698 L 146.51 1287.6622861173698 L 147.50000000000006 1285.6622861173698 L 147.51000000000005 1285.6622861173698 L 148.49999999999994 1283.66228611737 L 148.50999999999993 1283.66228611737 L 149.5 1281.66228611737 L 149.51 1281.66228611737 L 150.5 1279.6622861173698 L 150.51 1279.6622861173698 L 151.5 1277.6622861173698 L 151.51 1277.6622861173698 L 152.5 1275.6622861173698 L 152.51 1275.6622861173698 L 153.50000000000006 1273.6622861173698 L 153.51000000000005 1273.6622861173698 L 154.50000000000006 1271.6622861173698 L 154.51000000000005 1271.6622861173698 L 155.49999999999994 1269.66228611737 L 155.50999999999993 1269.66228611737 L 156.5 1267.66228611737 L 156.51 1267.66228611737 L 157.5 1265.6622861173698 L 157.51 1265.6622861173698 L 158.5 1263.6622861173698 L 158.51 1263.6622861173698 L 159.5 1261.6622861173698 L 159.51 1261.6622861173698 L 160.50000000000006 1259.6622861173698 L 160.51000000000005 1259.6622861173698 L 161.50000000000006 1257.6622861173696 L 161.51000000000005 1257.6622861173696 L 162.5 1255.66228611737 L 162.51 1255.66228611737 L 163.5 1253.6622861173698 L 163.51 1253.6622861173698 L 164.5 1251.6622861173698 L 164.51 1251.6622861173698 L 165.5 1249.6622861173698 L 165.51 1249.6622861173698 L 166.5 1247.6622861173698 L 166.51 1247.6622861173698 L 167.50000000000006 1245.6622861173696 L 167.51000000000005 1245.6622861173696 L 168.49999999999994 1243.66228611737 L 168.50999999999993 1243.66228611737 L 169.5 1241.6622861173698 L 169.51 1241.6622861173698 L 170.5 1239.6622861173698 L 170.51 1239.6622861173698 L 171.5 1237.6622861173698 L 171.51 1237.6622861173698 L 172.5 1235.6622861173698 L 172.51 1235.6622861173698 L 173.5 1233.6622861173696 L 173.51 1233.6622861173696 L 174.50000000000006 1231.6622861173696 L 174.51000000000005 1231.6622861173696 L 175.49999999999994 1229.66228611737 L 175.50999999999993 1229.66228611737 L 176.5 1227.6622861173698 L 176.51 1227.6622861173698 L 177.5 1225.6622861173698 L 177.51 1225.6622861173698 L 178.5 1223.6622861173698 L 178.51 1223.6622861173698 L 179.5 1221.6622861173698 L 179.51 1221.6622861173698 L 180.5 1219.6622861173696 L 180.51 1219.6622861173696 L 181.50000000000006 1217.6622861173696 L 181.51000000000005 1217.6622861173696 L 182.49999999999994 1215.6622861173698 L 182.50999999999993 1215.6622861173698 L 183.5 1213.6622861173698 L 183.51 1213.6622861173698 L 184.5 1211.6622861173698 L 184.51 1211.6622861173698 L 185.5 1209.6622861173698 L 185.51 1209.6622861173698 L 186.5 1207.6622861173696 L 186.51 1207.6622861173696 L 187.5 1205.6622861173696 L 187.51 1205.6622861173696 L 188.50000000000006 1203.6622861173696 L 188.51000000000005 1203.6622861173696 L 189.49999999999994 1201.6622861173698 L 189.50999999999993 1201.6622861173698 L 190.5 1199.6622861173698 L 190.51 1199.6622861173698 L 191.5 1197.6622861173698 L 191.51 1197.6622861173698 L 192.5 1195.6622861173696 L 192.51 1195.6622861173696 L 193.5 1193.6622861173696 L 193.51 1193.6622861173696 L 194.50000000000006 1191.6622861173696 L 194.51000000000005 1191.6622861173696 L 195.50000000000006 1189.6622861173696 L 195.51000000000005 1189.6622861173696 L 196.49999999999994 1187.6622861173698 L 196.50999999999993 1187.6622861173698 L 197.5 1185.6622861173698 L 197.51 1185.6622861173698 L 198.5 1183.6622861173698 L 198.51 1183.6622861173698 L 199.5 1181.6622861173696 L 199.51 1181.6622861173696 L 200.5 1179.6622861173696 L 200.51 1179.6622861173696 L 201.50000000000006 1177.6622861173696 L 201.51000000000005 1177.6622861173696 L 202.50000000000006 1175.6622861173696 L 202.51000000000005 1175.6622861173696 L 203.49999999999994 1173.6622861173698 L 203.50999999999993 1173.6622861173698 L 204.5 1171.6622861173698 L 204.51 1171.6622861173698 L 205.5 1169.6622861173696 L 205.51 1169.6622861173696 L 206.5 1167.6622861173696 L 206.51 1167.6622861173696 L 207.5 1165.6622861173696 L 207.51 1165.6622861173696 L 208.50000000000006 1163.6622861173696 L 208.51000000000005 1163.6622861173696 L 209.49999999999994 1161.6622861173698 L 209.50999999999993 1161.6622861173698 L 210.5 1159.6622861173698 L 210.51 1159.6622861173698 L 211.5 1157.6622861173696 L 211.51 1157.6622861173696 L 212.5 1155.6622861173696 L 212.51 1155.6622861173696 L 213.5 1153.6622861173696 L 213.51 1153.6622861173696 L 214.50000000000003 1151.6622861173696 L 214.51000000000002 1151.6622861173696 L 215.50000000000003 1149.6622861173696 L 215.51000000000002 1149.6622861173696 L 216.49999999999997 1147.6622861173698 L 216.50999999999996 1147.6622861173698 L 217.49999999999997 1145.6622861173698 L 217.50999999999996 1145.6622861173698 L 218.5 1143.6622861173696 L 218.51 1143.6622861173696 L 219.5 1141.6622861173696 L 219.51 1141.6622861173696 L 220.5 1139.6622861173696 L 220.51 1139.6622861173696 L 221.50000000000003 1137.6622861173696 L 221.51000000000002 1137.6622861173696 L 222.50000000000003 1135.6622861173696 L 222.51000000000002 1135.6622861173696 L 223.49999999999997 1133.6622861173698 L 223.50999999999996 1133.6622861173698 L 224.49999999999997 1131.6622861173696 L 224.50999999999996 1131.6622861173696 L 225.5 1129.6622861173696 L 225.51 1129.6622861173696 L 226.5 1127.6622861173696 L 226.51 1127.6622861173696 L 227.5 1125.6622861173696 L 227.51 1125.6622861173696 L 228.50000000000003 1123.6622861173696 L 228.51000000000002 1123.6622861173696 L 229.50000000000003 1121.6622861173696 L 229.51000000000002 1121.6622861173696 L 230.49999999999997 1119.6622861173696 L 230.50999999999996 1119.6622861173696 L 231.49999999999997 1117.6622861173696 L 231.50999999999996 1117.6622861173696 L 232.5 1115.6622861173696 L 232.51 1115.6622861173696 L 233.5 1113.6622861173696 L 233.51 1113.6622861173696 L 234.50000000000003 1111.6622861173696 L 234.51000000000002 1111.6622861173696 L 235.50000000000003 1109.6622861173696 L 235.51000000000002 1109.6622861173696 L 236.50000000000003 1107.6622861173696 L 236.51000000000002 1107.6622861173696 L 237.49999999999997 1105.6622861173696 L 237.50999999999996 1105.6622861173696 L 238.49999999999997 1103.6622861173696 L 238.50999999999996 1103.6622861173696 L 239.5 1101.6622861173696 L 239.51 1101.6622861173696 L 240.5 1099.6622861173696 L 240.51 1099.6622861173696 L 241.50000000000003 1097.6622861173696 L 241.51000000000002 1097.6622861173696 L 242.50000000000003 1095.6622861173696 L 242.51000000000002 1095.6622861173696 L 243.50000000000003 1093.6622861173696 L 243.51000000000002 1093.6622861173696 L 244.49999999999997 1091.6622861173696 L 244.50999999999996 1091.6622861173696 L 245.49999999999997 1089.6622861173696 L 245.50999999999996 1089.6622861173696 L 246.5 1087.6622861173696 L 246.51 1087.6622861173696 L 247.5 1085.6622861173696 L 247.51 1085.6622861173696 L 248.50000000000003 1083.6622861173696 L 248.51000000000002 1083.6622861173696 L 249.50000000000003 1081.6622861173696 L 249.51000000000002 1081.6622861173696 L 250.49999999999997 1079.6622861173696 L 250.50999999999996 1079.6622861173696 L 251.49999999999997 1077.6622861173696 L 251.50999999999996 1077.6622861173696 L 252.49999999999997 1075.6622861173696 L 252.50999999999996 1075.6622861173696 L 253.5 1073.6622861173696 L 253.51 1073.6622861173696 L 254.5 1071.6622861173696 L 254.51 1071.6622861173696 L 255.50000000000003 1069.6622861173696 L 255.51000000000002 1069.6622861173696 L 256.5 1067.6622861173696 L 256.51 1067.6622861173696 L 257.5 1065.6622861173696 L 257.51 1065.6622861173696 L 258.5 1063.6622861173696 L 258.51 1063.6622861173696 L 259.5 1061.6622861173696 L 259.51 1061.6622861173696 L 260.5 1059.6622861173696 L 260.51 1059.6622861173696 L 261.5 1057.6622861173696 L 261.51 1057.6622861173696 L 262.5 1055.6622861173696 L 262.51 1055.6622861173696 L 263.5 1053.6622861173696 L 263.51 1053.6622861173696 L 264.5 1051.6622861173696 L 264.51 1051.6622861173696 L 265.5 1049.6622861173696 L 265.51 1049.6622861173696 L 266.5 1047.6622861173696 L 266.51 1047.6622861173696 L 267.5 1045.6622861173696 L 267.51 1045.6622861173696 L 268.5 1043.6622861173696 L 268.51 1043.6622861173696 L 269.5 1041.6622861173696 L 269.51 1041.6622861173696 L 270.5 1039.6622861173696 L 270.51 1039.6622861173696 L 271.5 1037.6622861173696 L 271.51 1037.6622861173696 L 272.5 1035.6622861173696 L 272.51 1035.6622861173696 L 273.5 1033.6622861173696 L 273.51 1033.6622861173696 L 274.5 1031.6622861173696 L 274.51 1031.6622861173696 L 275.5 1029.6622861173696 L 275.51 1029.6622861173696 L 276.5 1027.6622861173696 L 276.51 1027.6622861173696 L 277.5 1025.6622861173696 L 277.51 1025.6622861173696 L 278.5 1023.6622861173696 L 278.51 1023.6622861173696 L 279.5 1021.6622861173696 L 279.51 1021.6622861173696 L 280.5 1019.6622861173696 L 280.51 1019.6622861173696 L 281.5 1017.6622861173696 L 281.51 1017.6622861173696 L 282.5 1015.6622861173696 L 282.51 1015.6622861173696 L 283.5 1013.6622861173696 L 283.51 1013.6622861173696 L 284.49999999999994 1011.6622861173696 L 284.50999999999993 1011.6622861173696 L 285.5 1009.6622861173696 L 285.51 1009.6622861173696 L 286.5 1007.6622861173696 L 286.51 1007.6622861173696 L 287.5 1005.6622861173696 L 287.51 1005.6622861173696 L 288.5 1003.6622861173696 L 288.51 1003.6622861173696 L 289.5 1001.6622861173696 L 289.51 1001.6622861173696 L 290.5 999.6622861173695 L 290.51 999.6622861173695 L 291.5 997.6622861173696 L 291.51 997.6622861173696 L 292.5 995.6622861173696 L 292.51 995.6622861173696 L 293.5 993.6622861173696 L 293.51 993.6622861173696 L 294.5 991.6622861173696 L 294.51 991.6622861173696 L 295.5 989.6622861173696 L 295.51 989.6622861173696 L 296.5 987.6622861173696 L 296.51 987.6622861173696 L 297.5 985.6622861173695 L 297.51 985.6622861173695 L 298.5 983.6622861173696 L 298.51 983.6622861173696 L 299.5 981.6622861173696 L 299.51 981.6622861173696 L 300.5 979.6622861173696 L 300.51 979.6622861173696 L 301.5 977.6622861173696 L 301.51 977.6622861173696 L 302.5 975.6622861173696 L 302.51 975.6622861173696 L 303.5 973.6622861173695 L 303.51 973.6622861173695 L 304.5 971.6622861173695 L 304.51 971.6622861173695 L 305.5 969.6622861173696 L 305.51 969.6622861173696 L 306.5 967.6622861173696 L 306.51 967.6622861173696 L 307.5 965.6622861173696 L 307.51 965.6622861173696 L 308.5 963.6622861173696 L 308.51 963.6622861173696 L 309.5 961.6622861173695 L 309.51 961.6622861173695 L 310.5 959.6622861173695 L 310.51 959.6622861173695 L 311.5 957.6622861173694 L 311.51 957.6622861173694 L 312.5 955.6622861173696 L 312.51 955.6622861173696 L 313.5 953.6622861173696 L 313.51 953.6622861173696 L 314.5 951.6622861173696 L 314.51 951.6622861173696 L 315.5 949.6622861173696 L 315.51 949.6622861173696 L 316.5 947.6622861173695 L 316.51 947.6622861173695 L 317.5 945.6622861173696 L 317.51 945.6622861173696 L 318.5 943.6622861173696 L 318.51 943.6622861173696 L 319.5 941.6622861173695 L 319.51 941.6622861173695 L 320.5 939.6622861173696 L 320.51 939.6622861173696 L 321.5 937.6622861173696 L 321.51 937.6622861173696 L 322.5 935.6622861173695 L 322.51 935.6622861173695 L 323.5 933.6622861173695 L 323.51 933.6622861173695 L 324.5 931.6622861173696 L 324.51 931.6622861173696 L 325.5 929.6622861173695 L 325.51 929.6622861173695 L 326.5 927.6622861173695 L 326.51 927.6622861173695 L 327.5 925.6622861173696 L 327.51 925.6622861173696 L 328.5 923.6622861173695 L 328.51 923.6622861173695 L 329.5 921.6622861173695 L 329.51 921.6622861173695 L 330.5 919.6622861173694 L 330.51 919.6622861173694 L 331.5 917.6622861173695 L 331.51 917.6622861173695 L 332.5 915.6622861173695 L 332.51 915.6622861173695 L 333.5 913.6622861173695 L 333.51 913.6622861173695 L 334.5 911.6622861173696 L 334.51 911.6622861173696 L 335.5 909.6622861173695 L 335.51 909.6622861173695 L 336.5 907.6622861173695 L 336.51 907.6622861173695 L 337.5 905.6622861173696 L 337.51 905.6622861173696 L 338.5 903.6622861173695 L 338.51 903.6622861173695 L 339.5 901.6622861173695 L 339.51 901.6622861173695 L 340.5 899.6622861173694 L 340.51 899.6622861173694 L 341.5 897.6622861173695 L 341.51 897.6622861173695 L 342.5 895.6622861173695 L 342.51 895.6622861173695 L 343.5 893.6622861173694 L 343.51 893.6622861173694 L 344.5 891.6622861173695 L 344.51 891.6622861173695 L 345.5 889.6622861173695 L 345.51 889.6622861173695 L 346.5 887.6622861173694 L 346.51 887.6622861173694 L 347.5 885.6622861173694 L 347.51 885.6622861173694 L 348.5 883.6622861173695 L 348.51 883.6622861173695 L 349.5 881.6622861173694 L 349.51 881.6622861173694 L 350.5 879.6622861173694 L 350.51 879.6622861173694 L 351.5 877.6622861173695 L 351.51 877.6622861173695 L 352.5 875.6622861173695 L 352.51 875.6622861173695 L 353.5 873.6622861173694 L 353.51 873.6622861173694 L 354.5 871.6622861173695 L 354.51 871.6622861173695 L 355.5 869.6622861173695 L 355.51 869.6622861173695 L 356.5 867.6622861173694 L 356.51 867.6622861173694 L 357.5 865.6622861173694 L 357.51 865.6622861173694 L 358.5 863.6622861173695 L 358.51 863.6622861173695 L 359.5 861.6622861173694 L 359.51 861.6622861173694 L 360.5 859.6622861173694 L 360.51 859.6622861173694 L 361.5 857.6622861173695 L 361.51 857.6622861173695 L 362.5 855.6622861173694 L 362.51 855.6622861173694 L 363.5 853.6622861173694 L 363.51 853.6622861173694 L 364.5 851.6622861173694 L 364.51 851.6622861173694 L 365.5 849.6622861173694 L 365.51 849.6622861173694 L 366.5 847.6622861173694 L 366.51 847.6622861173694 L 367.5 845.6622861173694 L 367.51 845.6622861173694 L 368.5 843.6622861173694 L 368.51 843.6622861173694 L 369.5 841.6622861173694 L 369.51 841.6622861173694 L 370.5 839.6622861173694 L 370.51 839.6622861173694 L 371.5 837.6622861173694 L 371.51 837.6622861173694 L 372.5 835.6622861173694 L 372.51 835.6622861173694 L 373.5 833.6622861173694 L 373.51 833.6622861173694 L 374.5 831.6622861173694 L 374.51 831.6622861173694 L 375.5 829.6622861173694 L 375.51 829.6622861173694 L 376.5 827.6622861173694 L 376.51 827.6622861173694 L 377.5 825.6622861173694 L 377.51 825.6622861173694 L 378.5 823.6622861173694 L 378.51 823.6622861173694 L 379.5 821.6622861173694 L 379.51 821.6622861173694 L 380.5 819.6622861173694 L 380.51 819.6622861173694 L 381.5 817.6622861173694 L 381.51 817.6622861173694 L 382.5 815.6622861173694 L 382.51 815.6622861173694 L 383.5 813.6622861173694 L 383.51 813.6622861173694 L 384.5 811.6622861173694 L 384.51 811.6622861173694 L 385.5 809.6622861173694 L 385.51 809.6622861173694 L 386.5 807.6622861173694 L 386.51 807.6622861173694 L 387.5 805.6622861173694 L 387.51 805.6622861173694 L 388.5 803.6622861173694 L 388.51 803.6622861173694 L 389.5 801.6622861173694 L 389.51 801.6622861173694 L 390.5 799.6622861173694 L 390.51 799.6622861173694 L 391.5 797.6622861173694 L 391.51 797.6622861173694 L 392.5 795.6622861173694 L 392.51 795.6622861173694 L 393.5 793.6622861173694 L 393.51 793.6622861173694 L 394.5 791.6622861173694 L 394.51 791.6622861173694 L 395.5 789.6622861173694 L 395.51 789.6622861173694 L 396.5 787.6622861173694 L 396.51 787.6622861173694 L 397.5 785.6622861173694 L 397.51 785.6622861173694 L 398.5 783.6622861173694 L 398.51 783.6622861173694 L 399.5 781.6622861173694 L 399.51 781.6622861173694 L 400.5 779.6622861173694 L 400.51 779.6622861173694 L 401.5 777.6622861173694 L 401.51 777.6622861173694 L 402.5 775.6622861173694 L 402.51 775.6622861173694 L 403.5 773.6622861173694 L 403.51 773.6622861173694 L 404.5 771.6622861173694 L 404.51 771.6622861173694 L 405.5 769.6622861173694 L 405.51 769.6622861173694 L 406.5 767.6622861173694 L 406.51 767.6622861173694 L 407.5 765.6622861173694 L 407.51 765.6622861173694 L 408.5 763.6622861173694 L 408.51 763.6622861173694 L 409.5 761.6622861173694 L 409.51 761.6622861173694 L 410.5 759.6622861173694 L 410.51 759.6622861173694 L 411.5 757.6622861173694 L 411.51 757.6622861173694 L 412.5 755.6622861173694 L 412.51 755.6622861173694 L 413.5 753.6622861173694 L 413.51 753.6622861173694 L 414.5 751.6622861173694 L 414.51 751.6622861173694 L 415.5 749.6622861173693 L 415.51 749.6622861173693 L 416.5 747.6622861173694 L 416.51 747.6622861173694 L 417.5 745.6622861173694 L 417.51 745.6622861173694 L 418.5 743.6622861173693 L 418.51 743.6622861173693 L 419.5 741.6622861173694 L 419.51 741.6622861173694 L 420.5 739.6622861173694 L 420.51 739.6622861173694 L 421.5 737.6622861173693 L 421.51 737.6622861173693 L 422.5 735.6622861173693 L 422.51 735.6622861173693 L 423.5 733.6622861173694 L 423.51 733.6622861173694 L 424.5 731.6622861173694 L 424.51 731.6622861173694 L 425.5 729.6622861173693 L 425.51 729.6622861173693 L 426.5 727.6622861173694 L 426.51 727.6622861173694 L 427.5 725.6622861173694 L 427.51 725.6622861173694 L 428.5 723.6622861173693 L 428.51 723.6622861173693 L 429.5 721.6622861173693 L 429.51 721.6622861173693 L 430.5 719.6622861173694 L 430.51 719.6622861173694 L 431.5 717.6622861173693 L 431.51 717.6622861173693 L 432.5 715.6622861173693 L 432.51 715.6622861173693 L 433.5 713.6622861173694 L 433.51 713.6622861173694 L 434.5 711.6622861173693 L 434.51 711.6622861173693 L 435.5 709.6622861173693 L 435.51 709.6622861173693 L 436.5 707.6622861173694 L 436.51 707.6622861173694 L 437.5 705.6622861173693 L 437.51 705.6622861173693 L 438.5 703.6622861173693 L 438.51 703.6622861173693 L 439.5 701.6622861173693 L 439.51 701.6622861173693 L 440.5 699.6622861173693 L 440.51 699.6622861173693 L 441.5 697.6622861173693 L 441.51 697.6622861173693 L 442.5 695.6622861173693 L 442.51 695.6622861173693 L 443.5 693.6622861173694 L 443.51 693.6622861173694 L 444.5 691.6622861173693 L 444.51 691.6622861173693 L 445.5 689.6622861173693 L 445.51 689.6622861173693 L 446.5 687.6622861173693 L 446.51 687.6622861173693 L 447.5 685.6622861173693 L 447.51 685.6622861173693 L 448.5 683.6622861173693 L 448.51 683.6622861173693 L 449.5 681.6622861173693 L 449.51 681.6622861173693 L 450.5 679.6622861173693 L 450.51 679.6622861173693 L 451.5 677.6622861173693 L 451.51 677.6622861173693 L 452.5 675.6622861173693 L 452.51 675.6622861173693 L 453.5 673.6622861173693 L 453.51 673.6622861173693 L 454.5 671.6622861173693 L 454.51 671.6622861173693 L 455.5 669.6622861173693 L 455.51 669.6622861173693 L 456.5 667.6622861173693 L 456.51 667.6622861173693 L 457.5 665.6622861173693 L 457.51 665.6622861173693 L 458.5 663.6622861173693 L 458.51 663.6622861173693 L 459.5 661.6622861173693 L 459.51 661.6622861173693 L 460.5 659.6622861173693 L 460.51 659.6622861173693 L 461.5 657.6622861173693 L 461.51 657.6622861173693 L 462.5 655.6622861173693 L 462.51 655.6622861173693 L 463.5 653.6622861173691 L 463.51 653.6622861173691 L 464.5 651.6622861173693 L 464.51 651.6622861173693 L 465.5 649.6622861173693 L 465.51 649.6622861173693 L 466.5 647.6622861173691 L 466.51 647.6622861173691 L 467.5 645.6622861173693 L 467.51 645.6622861173693 L 468.5 643.6622861173693 L 468.51 643.6622861173693 L 469.5 641.6622861173691 L 469.51 641.6622861173691 L 470.5 639.6622861173691 L 470.51 639.6622861173691 L 471.5 637.6622861173693 L 471.51 637.6622861173693 L 472.5 635.6622861173691 L 472.51 635.6622861173691 L 473.5 633.6622861173691 L 473.51 633.6622861173691 L 474.5 631.6622861173693 L 474.51 631.6622861173693 L 475.5 629.6622861173691 L 475.51 629.6622861173691 L 476.5 627.6622861173691 L 476.51 627.6622861173691 L 477.5 625.6622861173693 L 477.51 625.6622861173693 L 478.5 623.6622861173693 L 478.51 623.6622861173693 L 479.5 621.6622861173691 L 479.51 621.6622861173691 L 480.5 619.6622861173691 L 480.51 619.6622861173691 L 481.5 617.6622861173693 L 481.51 617.6622861173693 L 482.5 615.6622861173691 L 482.51 615.6622861173691 L 483.5 613.6622861173691 L 483.51 613.6622861173691 L 484.5 611.6622861173693 L 484.51 611.6622861173693 L 485.5 609.6622861173691 L 485.51 609.6622861173691 L 486.5 607.6622861173691 L 486.51 607.6622861173691 L 487.5 605.6622861173691 L 487.51 605.6622861173691 L 488.5 603.6622861173691 L 488.51 603.6622861173691 L 489.5 601.6622861173691 L 489.51 601.6622861173691 L 490.5 599.6622861173691 L 490.51 599.6622861173691 L 491.5 597.6622861173691 L 491.51 597.6622861173691 L 492.5 595.6622861173691 L 492.51 595.6622861173691 L 493.5 593.6622861173691 L 493.51 593.6622861173691 L 494.49999999999994 591.6622861173693 L 494.50999999999993 591.6622861173693 L 495.5 589.6622861173691 L 495.51 589.6622861173691 L 496.5 587.6622861173691 L 496.51 587.6622861173691 L 497.5 585.6622861173691 L 497.51 585.6622861173691 L 498.5 583.6622861173691 L 498.51 583.6622861173691 L 499.5 581.6622861173691 L 499.51 581.6622861173691 L 500.5 579.6622861173691 L 500.51 579.6622861173691 L 501.5 577.6622861173691 L 501.51 577.6622861173691 L 502.5 575.6622861173691 L 502.51 575.6622861173691 L 503.5 573.6622861173691 L 503.51 573.6622861173691 L 504.5 571.6622861173691 L 504.51 571.6622861173691 L 505.5 569.6622861173691 L 505.51 569.6622861173691 L 506.5 567.6622861173691 L 506.51 567.6622861173691 L 507.5 565.6622861173691 L 507.51 565.6622861173691 L 508.5 563.6622861173691 L 508.51 563.6622861173691 L 509.5 561.6622861173691 L 509.51 561.6622861173691 L 510.5 559.6622861173691 L 510.51 559.6622861173691 L 511.5 557.6622861173691 L 511.51 557.6622861173691 L 512.5 555.6622861173691 L 512.51 555.6622861173691 L 513.5 553.6622861173691 L 513.51 553.6622861173691 L 514.5 551.6622861173691 L 514.51 551.6622861173691 L 515.5 549.6622861173691 L 515.51 549.6622861173691 L 516.5 547.6622861173691 L 516.51 547.6622861173691 L 517.5 545.6622861173691 L 517.51 545.6622861173691 L 518.5 543.6622861173691 L 518.51 543.6622861173691 L 519.5 541.6622861173691 L 519.51 541.6622861173691 L 520.5 539.6622861173691 L 520.51 539.6622861173691 L 521.5 537.6622861173691 L 521.51 537.6622861173691 L 522.5 535.6622861173691 L 522.51 535.6622861173691 L 523.5 533.6622861173691 L 523.51 533.6622861173691 L 524.5 531.6622861173691 L 524.51 531.6622861173691 L 525.5 529.6622861173691 L 525.51 529.6622861173691 L 526.5 527.6622861173691 L 526.51 527.6622861173691 L 527.5 525.662286117369 L 527.51 525.662286117369 L 528.5 523.6622861173691 L 528.51 523.6622861173691 L 529.5 521.6622861173691 L 529.51 521.6622861173691 L 530.5 519.6622861173691 L 530.51 519.6622861173691 L 531.5 517.6622861173691 L 531.51 517.6622861173691 L 532.5 515.662286117369 L 532.51 515.662286117369 L 533.5 513.6622861173691 L 533.51 513.6622861173691 L 534.5 511.6622861173691 L 534.51 511.6622861173691 L 535.5 509.6622861173691 L 535.51 509.6622861173691 L 536.5 507.6622861173691 L 536.51 507.6622861173691 L 537.5 505.6622861173691 L 537.51 505.6622861173691 L 538.5 503.6622861173691 L 538.51 503.6622861173691 L 539.5 501.66228611736904 L 539.51 501.66228611736904 L 540.5 499.6622861173691 L 540.51 499.6622861173691 L 541.5 497.6622861173691 L 541.51 497.6622861173691 L 542.5 495.66228611736904 L 542.51 495.66228611736904 L 543.5 493.6622861173691 L 543.51 493.6622861173691 L 544.5 491.66228611736904 L 544.51 491.66228611736904 L 545.5 489.6622861173691 L 545.51 489.6622861173691 L 546.5 487.6622861173691 L 546.51 487.6622861173691 L 547.5 485.66228611736904 L 547.51 485.66228611736904 L 548.5 483.6622861173691 L 548.51 483.6622861173691 L 549.5 481.66228611736904 L 549.51 481.66228611736904 L 550.5 479.66228611736904 L 550.51 479.66228611736904 L 551.5 477.66228611736904 L 551.51 477.66228611736904 L 552.5 475.66228611736904 L 552.51 475.66228611736904 L 553.5 473.66228611736904 L 553.51 473.66228611736904 L 554.5 471.66228611736904 L 554.51 471.66228611736904 L 555.5 469.66228611736904 L 555.51 469.66228611736904 L 556.5 467.66228611736904 L 556.51 467.66228611736904 L 557.5 465.66228611736904 L 557.51 465.66228611736904 L 558.5 463.66228611736904 L 558.51 463.66228611736904 L 559.5 461.66228611736904 L 559.51 461.66228611736904 L 560.5 459.66228611736904 L 560.51 459.66228611736904 L 561.5 457.66228611736904 L 561.51 457.66228611736904 L 562.5 455.66228611736904 L 562.51 455.66228611736904 L 563.5 453.66228611736904 L 563.51 453.66228611736904 L 564.5 451.66228611736904 L 564.51 451.66228611736904 L 565.5 449.66228611736904 L 565.51 449.66228611736904 L 566.5 447.66228611736904 L 566.51 447.66228611736904 L 567.5 445.66228611736904 L 567.51 445.66228611736904 L 568.5 443.66228611736904 L 568.51 443.66228611736904 L 569.5 441.66228611736904 L 569.51 441.66228611736904 L 570.5 439.66228611736904 L 570.51 439.66228611736904 L 571.5 437.66228611736904 L 571.51 437.66228611736904 L 572.5 435.66228611736904 L 572.51 435.66228611736904 L 573.5 433.662286117369 L 573.51 433.662286117369 L 574.5 431.66228611736904 L 574.51 431.66228611736904 L 575.5 429.66228611736904 L 575.51 429.66228611736904 L 576.5 427.66228611736904 L 576.51 427.66228611736904 L 577.5 425.66228611736904 L 577.51 425.66228611736904 L 578.5 423.662286117369 L 578.51 423.662286117369 L 579.5 421.66228611736904 L 579.51 421.66228611736904 L 580.5 419.662286117369 L 580.51 419.662286117369 L 581.5 417.66228611736904 L 581.51 417.66228611736904 L 582.5 415.66228611736904 L 582.51 415.66228611736904 L 583.5 413.662286117369 L 583.51 413.662286117369 L 584.5 411.66228611736904 L 584.51 411.66228611736904 L 585.5 409.662286117369 L 585.51 409.662286117369 L 586.5 407.662286117369 L 586.51 407.662286117369 L 587.5 405.66228611736904 L 587.51 405.66228611736904 L 588.5 403.662286117369 L 588.51 403.662286117369 L 589.5 401.662286117369 L 589.51 401.662286117369 L 590.5 399.662286117369 L 590.51 399.662286117369 L 591.5 397.662286117369 L 591.51 397.662286117369 L 592.5 395.6622861173689 L 592.51 395.6622861173689 L 593.5 393.662286117369 L 593.51 393.662286117369 L 594.5 391.662286117369 L 594.51 391.662286117369 L 595.5 389.6622861173689 L 595.51 389.6622861173689 L 596.5 387.662286117369 L 596.51 387.662286117369 L 597.5 385.6622861173689 L 597.51 385.6622861173689 L 598.5 383.6622861173689 L 598.51 383.6622861173689 L 599.5 381.662286117369 L 599.51 381.662286117369 L 600.5 379.6622861173689 L 600.51 379.6622861173689 L 601.5 377.662286117369 L 601.51 377.662286117369 L 602.5 375.6622861173689 L 602.51 375.6622861173689 L 603.5 373.6622861173689 L 603.51 373.6622861173689 L 604.5 371.662286117369 L 604.51 371.662286117369 L 605.5 369.6622861173689 L 605.51 369.6622861173689 L 606.5 367.6622861173689 L 606.51 367.6622861173689 L 607.5 365.662286117369 L 607.51 365.662286117369 L 608.5 363.6622861173689 L 608.51 363.6622861173689 L 609.5 361.6622861173689 L 609.51 361.6622861173689 L 610.5 359.6622861173689 L 610.51 359.6622861173689 L 611.5 357.6622861173689 L 611.51 357.6622861173689 L 612.5 355.6622861173689 L 612.51 355.6622861173689 L 613.5 353.6622861173689 L 613.51 353.6622861173689 L 614.5 351.6622861173689 L 614.51 351.6622861173689 L 615.5 349.6622861173689 L 615.51 349.6622861173689 L 616.5 347.6622861173689 L 616.51 347.6622861173689 L 617.5 345.6622861173689 L 617.51 345.6622861173689 L 618.5 343.6622861173689 L 618.51 343.6622861173689 L 619.5 341.6622861173689 L 619.51 341.6622861173689 L 620.5 339.6622861173689 L 620.51 339.6622861173689 L 621.5 337.6622861173689 L 621.51 337.6622861173689 L 622.5 335.6622861173689 L 622.51 335.6622861173689 L 623.5 333.6622861173689 L 623.51 333.6622861173689 L 624.5 331.6622861173689 L 624.51 331.6622861173689 L 625.5 329.6622861173689 L 625.51 329.6622861173689 L 626.5 327.6622861173689 L 626.51 327.6622861173689 L 627.5 325.6622861173689 L 627.51 325.6622861173689 L 628.5 323.6622861173689 L 628.51 323.6622861173689 L 629.5 321.6622861173689 L 629.51 321.6622861173689 L 630.5 319.66228611736886 L 630.51 319.66228611736886 L 631.5 317.6622861173689 L 631.51 317.6622861173689 L 632.5 315.6622861173689 L 632.51 315.6622861173689 L 633.5 313.66228611736886 L 633.51 313.66228611736886 L 634.5 311.6622861173689 L 634.51 311.6622861173689 L 635.5 309.6622861173689 L 635.51 309.6622861173689 L 636.5 307.66228611736886 L 636.51 307.66228611736886 L 637.5 305.6622861173689 L 637.51 305.6622861173689 L 638.5 303.6622861173689 L 638.51 303.6622861173689 L 639.5 301.66228611736886 L 639.51 301.66228611736886 L 640.5 299.66228611736886 L 640.51 299.66228611736886 L 641.5 297.66228611736886 L 641.51 297.66228611736886 L 642.5 295.6622861173689 L 642.51 295.6622861173689 L 643.5 293.66228611736886 L 643.51 293.66228611736886 L 644.5 291.66228611736886 L 644.51 291.66228611736886 L 645.5 289.66228611736886 L 645.51 289.66228611736886 L 646.5 287.66228611736886 L 646.51 287.66228611736886 L 647.5 285.6622861173688 L 647.51 285.6622861173688 L 648.5 283.66228611736886 L 648.51 283.66228611736886 L 649.5 281.66228611736886 L 649.51 281.66228611736886 L 650.5 279.66228611736886 L 650.51 279.66228611736886 L 651.5 277.66228611736886 L 651.51 277.66228611736886 L 652.5 275.66228611736886 L 652.51 275.66228611736886 L 653.5 273.66228611736886 L 653.51 273.66228611736886 L 654.5 271.66228611736886 L 654.51 271.66228611736886 L 655.5 269.66228611736886 L 655.51 269.66228611736886 L 656.5 267.66228611736886 L 656.51 267.66228611736886 L 657.5 265.6622861173688 L 657.51 265.6622861173688 L 658.5 263.66228611736886 L 658.51 263.66228611736886 L 659.5 261.66228611736886 L 659.51 261.66228611736886 L 660.5 259.6622861173688 L 660.51 259.6622861173688 L 661.5 257.66228611736886 L 661.51 257.66228611736886 L 662.5 255.66228611736886 L 662.51 255.66228611736886 L 663.5 253.6622861173688 L 663.51 253.6622861173688 L 664.5 251.6622861173688 L 664.51 251.6622861173688 L 665.5 249.66228611736886 L 665.51 249.66228611736886 L 666.5 247.6622861173688 L 666.51 247.6622861173688 L 667.5 245.6622861173688 L 667.51 245.6622861173688 L 668.5 243.66228611736886 L 668.51 243.66228611736886 L 669.5 241.6622861173688 L 669.51 241.6622861173688 L 670.5 239.6622861173688 L 670.51 239.6622861173688 L 671.5 237.6622861173688 L 671.51 237.6622861173688 L 672.5 235.66228611736886 L 672.51 235.66228611736886 L 673.5 233.6622861173688 L 673.51 233.6622861173688 L 674.5 231.6622861173688 L 674.51 231.6622861173688 L 675.5 229.66228611736886 L 675.51 229.66228611736886 L 676.5 227.6622861173688 L 676.51 227.6622861173688 L 677.5 225.6622861173688 L 677.51 225.6622861173688 L 678.5 223.66228611736875 L 678.51 223.66228611736875 L 679.5 221.6622861173688 L 679.51 221.6622861173688 L 680.5 219.6622861173688 L 680.51 219.6622861173688 L 681.5 217.66228611736875 L 681.51 217.66228611736875 L 682.5 215.6622861173688 L 682.51 215.6622861173688 L 683.5 213.6622861173688 L 683.51 213.6622861173688 L 684.5 211.66228611736875 L 684.51 211.66228611736875 L 685.5 209.66228611736875 L 685.51 209.66228611736875 L 686.5 207.6622861173688 L 686.51 207.6622861173688 L 687.5 205.66228611736875 L 687.51 205.66228611736875 L 688.5 203.66228611736875 L 688.51 203.66228611736875 L 689.5 201.6622861173688 L 689.51 201.6622861173688 L 690.5 199.6622861173688 L 690.51 199.6622861173688 L 691.5 197.66228611736875 L 691.51 197.66228611736875 L 692.5 195.6622861173688 L 692.51 195.6622861173688 L 693.5 193.6622861173688 L 693.51 193.6622861173688 L 694.5 191.66228611736875 L 694.51 191.66228611736875 L 695.5 189.66228611736875 L 695.51 189.66228611736875 L 696.5 187.6622861173688 L 696.51 187.6622861173688 L 697.5 185.66228611736875 L 697.51 185.66228611736875 L 698.5 183.66228611736875 L 698.51 183.66228611736875 L 699.5 181.6622861173688 L 699.51 181.6622861173688 L 700.5 179.66228611736875 L 700.51 179.66228611736875 L 701.5 177.66228611736875 L 701.51 177.66228611736875 L 702.5 175.6622861173687 L 702.51 175.6622861173687 L 703.5 173.66228611736875 L 703.51 173.66228611736875 L 704.5 171.66228611736875 L 704.51 171.66228611736875 L 705.5 169.6622861173687 L 705.51 169.6622861173687 L 706.5 167.66228611736875 L 706.51 167.66228611736875 L 707.5 165.66228611736875 L 707.51 165.66228611736875 L 708.5 163.6622861173687 L 708.51 163.6622861173687 L 709.5 161.66228611736875 L 709.51 161.66228611736875 L 710.5 159.66228611736875 L 710.51 159.66228611736875 L 711.5 157.66228611736875 L 711.51 157.66228611736875 L 712.5 155.6622861173687 L 712.51 155.6622861173687 L 713.5 153.66228611736875 L 713.51 153.66228611736875 L 714.5 151.66228611736875 L 714.51 151.66228611736875 L 715.5 149.6622861173687 L 715.51 149.6622861173687 L 716.5 147.66228611736875 L 716.51 147.66228611736875 L 717.5 145.66228611736875 L 717.51 145.66228611736875 L 718.5 143.6622861173687 L 718.51 143.6622861173687 L 719.5 141.6622861173687 L 719.51 141.6622861173687 L 720.5 139.66228611736875 L 720.51 139.66228611736875 L 721.5 137.6622861173687 L 721.51 137.6622861173687 L 722.5 135.6622861173687 L 722.51 135.6622861173687 L 723.5 133.66228611736875 L 723.51 133.66228611736875 L 724.5 131.6622861173687 L 724.51 131.6622861173687 L 725.5 129.6622861173687 L 725.51 129.6622861173687 L 726.5 127.66228611736864 L 726.51 127.66228611736864 L 727.5 125.6622861173687 L 727.51 125.6622861173687 L 728.5 123.6622861173687 L 728.51 123.6622861173687 L 729.5 121.6622861173687 L 729.51 121.6622861173687 L 730.5 119.66228611736875 L 730.51 119.66228611736875 L 731.5 117.6622861173687 L 731.51 117.6622861173687 L 732.5 115.6622861173687 L 732.51 115.6622861173687 L 733.5 113.66228611736864 L 733.51 113.66228611736864 L 734.5 111.6622861173687 L 734.51 111.6622861173687 L 735.5 109.6622861173687 L 735.51 109.6622861173687 L 736.5 107.66228611736864 L 736.51 107.66228611736864 L 737.5 105.6622861173687 L 737.51 105.6622861173687 L 738.5 103.6622861173687 L 738.51 103.6622861173687 L 739.5 101.66228611736864 L 739.51 101.66228611736864 L 740.5 99.6622861173687 L 740.51 99.6622861173687 L 741.5 97.6622861173687 L 741.51 97.6622861173687 L 742.5 95.66228611736864 L 742.51 95.66228611736864 L 743.5 93.6622861173687 L 743.51 93.6622861173687 L 744.5 91.6622861173687 L 744.51 91.6622861173687 L 745.5 89.66228611736864 L 745.51 89.66228611736864 L 746.5 87.66228611736864 L 746.51 87.66228611736864 L 747.5 85.6622861173687 L 747.51 85.6622861173687 L 748.5 83.66228611736864 L 748.51 83.66228611736864 L 749.5 81.66228611736864 L 749.51 81.66228611736864 L 750.5 79.6622861173687 L 750.51 79.6622861173687 L 751.5 77.6622861173687 L 751.51 77.6622861173687 L 752.5 75.66228611736864 L 752.51 75.66228611736864 L 753.5 73.66228611736864 L 753.51 73.66228611736864 L 754.5 71.6622861173687 L 754.51 71.6622861173687 L 755.5 69.66228611736864 L 755.51 69.66228611736864 L 756.5 67.66228611736864 L 756.51 67.66228611736864 L 757.5 65.6622861173687 L 757.51 65.6622861173687 L 758.5 63.66228611736864 L 758.51 63.66228611736864 L 759.5 61.66228611736864 L 759.51 61.66228611736864 L 760.5 59.66228611736858 L 760.51 59.66228611736858 L 761.5 57.66228611736864 L 761.51 57.66228611736864 L 762.5 55.66228611736864 L 762.51 55.66228611736864 L 763.5 53.66228611736858 L 763.51 53.66228611736858 L 764.5 51.66228611736864 L 764.51 51.66228611736864 L 765.5 49.66228611736864 L 765.51 49.66228611736864 L 766.5 47.66228611736858 L 766.51 47.66228611736858 L 767.5 45.66228611736858 L 767.51 45.66228611736858 L 768.5 43.66228611736864 L 768.51 43.66228611736864 L 769.5 41.66228611736864 L 769.51 41.66228611736864 L 770.5 39.662286117368694 L 770.51 39.662286117368694 L 771.5 37.662286117368694 L 771.51 37.662286117368694 L 772.5 35.66228611736858 L 772.51 35.66228611736858 L 773.5 33.66228611736858 L 773.51 33.66228611736858 L 774.5 31.66228611736858 L 774.51 31.66228611736858 L 775.5 29.66228611736858 L 775.51 29.66228611736858 L 776.5 27.66228611736858 L 776.51 27.66228611736858 L 777.5 25.662286117368694 L 777.51 25.662286117368694 L 778.5 23.66228611736858 L 778.51 23.66228611736858 L 779.5 21.66228611736858 L 779.51 21.66228611736858 L 780.5 19.66228611736858 L 780.51 19.66228611736858 L 781.5 17.66228611736858 L 781.51 17.66228611736858 L 782.5 15.66228611736858 L 782.51 15.66228611736858 L 783.5 13.66228611736858 L 783.51 13.66228611736858 L 784.5 11.66228611736858 L 784.51 11.66228611736858 L 785.5 9.66228611736858 L 785.51 9.66228611736858 L 786.5 7.662286117368581 L 786.51 7.662286117368581 L 787.5 5.662286117368581 L 787.51 5.662286117368581 L 788.5 3.6622861173685806 L 788.51 3.6622861173685806 L 789.5 1.6622861173685806 L 789.51 1.6622861173685806 L 790.5 -0.33771388263141944 L 790.51 -0.33771388263141944 L 791.5 -2.3377138826314194 L 791.51 -2.3377138826314194 L 792.5 -4.337713882631419 L 792.51 -4.337713882631419 L 793.5 -6.337713882631419 L 793.51 -6.337713882631419 L 794.5 -8.33771388263142 L 794.51 -8.33771388263142 L 795.5 -10.337713882631533 L 795.51 -10.337713882631533 L 796.5 -12.33771388263142 L 796.51 -12.33771388263142 L 797.5 -14.33771388263142 L 797.51 -14.33771388263142 L 798.5 -16.33771388263142 L 798.51 -16.33771388263142 L 799.5 -18.33771388263142 L 799.51 -18.33771388263142 L 800.5 -20.33771388263142 L 800.51 -20.33771388263142 L 801.5 -22.337713882631533 L 801.51 -22.337713882631533 L 802.5 -24.33771388263142 L 802.51 -24.33771388263142 L 803.5 -26.33771388263142 L 803.51 -26.33771388263142 L 804.5 -28.33771388263142 L 804.51 -28.33771388263142 L 805.5 -30.33771388263142 L 805.51 -30.33771388263142 L 806.5 -32.33771388263142 L 806.51 -32.33771388263142 L 807.5 -34.33771388263153 L 807.51 -34.33771388263153 L 808.5 -36.33771388263153 L 808.51 -36.33771388263153 L 809.5 -38.33771388263142 L 809.51 -38.33771388263142 L 810.5 -40.33771388263142 L 810.51 -40.33771388263142 L 811.5 -42.33771388263142 L 811.51 -42.33771388263142 L 812.5 -44.33771388263142 L 812.51 -44.33771388263142 L 813.5 -46.33771388263142 L 813.51 -46.33771388263142 L 814.5 -48.33771388263153 L 814.51 -48.33771388263153 L 815.5 -50.33771388263153 L 815.51 -50.33771388263153 L 816.5 -52.33771388263142 L 816.51 -52.33771388263142 L 817.5 -54.33771388263153 L 817.51 -54.33771388263153 L 818.5 -56.33771388263142 L 818.51 -56.33771388263142 L 819.5 -58.33771388263142 L 819.51 -58.33771388263142 L 820.5 -60.33771388263153 L 820.51 -60.33771388263153 L 821.5 -62.33771388263153 L 821.51 -62.33771388263153 L 822.5 -64.33771388263153 L 822.51 -64.33771388263153 L 823.5 -66.33771388263153 L 823.51 -66.33771388263153 L 824.5 -68.33771388263153 L 824.51 -68.33771388263153 L 825.5 -70.33771388263142 L 825.51 -70.33771388263142 L 826.5 -72.33771388263153 L 826.51 -72.33771388263153 L 827.5 -74.33771388263153 L 827.51 -74.33771388263153 L 828.5 -76.33771388263153 L 828.51 -76.33771388263153 L 829.5 -78.33771388263153 L 829.51 -78.33771388263153 L 830.5 -80.33771388263153 L 830.51 -80.33771388263153 L 831.5 -82.33771388263142 L 831.51 -82.33771388263142 L 832.5 -84.33771388263142 L 832.51 -84.33771388263142 L 833.5 -86.33771388263153 L 833.51 -86.33771388263153 L 834.5 -88.33771388263153 L 834.51 -88.33771388263153 L 835.5 -90.33771388263153 L 835.51 -90.33771388263153 L 836.5 -92.33771388263153 L 836.51 -92.33771388263153 L 837.5 -94.33771388263153 L 837.51 -94.33771388263153 L 838.5 -96.33771388263142 L 838.51 -96.33771388263142 L 839.5 -98.33771388263153 L 839.51 -98.33771388263153 L 840.5 -100.33771388263153 L 840.51 -100.33771388263153 L 841.5 -102.33771388263153 L 841.51 -102.33771388263153 L 842.5 -104.33771388263153 L 842.51 -104.33771388263153 L 843.5 -106.33771388263153 L 843.51 -106.33771388263153 L 844.5 -108.33771388263153 L 844.51 -108.33771388263153 L 845.5 -110.33771388263153 L 845.51 -110.33771388263153 L 846.5 -112.33771388263153 L 846.51 -112.33771388263153 L 847.5 -114.33771388263153 L 847.51 -114.33771388263153 L 848.5 -116.33771388263153 L 848.51 -116.33771388263153 L 849.5 -118.33771388263153 L 849.51 -118.33771388263153 L 850.5 -120.33771388263165 L 850.51 -120.33771388263165 L 851.5 -122.33771388263165 L 851.51 -122.33771388263165 L 852.5 -124.33771388263153 L 852.51 -124.33771388263153 L 853.5 -126.33771388263153 L 853.51 -126.33771388263153 L 854.5 -128.33771388263153 L 854.51 -128.33771388263153 L 855.5 -130.33771388263153 L 855.51 -130.33771388263153 L 856.5 -132.33771388263165 L 856.51 -132.33771388263165 L 857.5 -134.33771388263142 L 857.51 -134.33771388263142 L 858.5 -136.33771388263153 L 858.51 -136.33771388263153 L 859.5 -138.33771388263153 L 859.51 -138.33771388263153 L 860.5 -140.33771388263153 L 860.51 -140.33771388263153 L 861.5 -142.33771388263153 L 861.51 -142.33771388263153 L 862.5 -144.33771388263165 L 862.51 -144.33771388263165 L 863.5 -146.33771388263165 L 863.51 -146.33771388263165 L 864.5 -148.33771388263165 L 864.51 -148.33771388263165 L 865.5 -150.33771388263165 L 865.51 -150.33771388263165 L 866.5 -152.33771388263153 L 866.51 -152.33771388263153 L 867.5 -154.33771388263153 L 867.51 -154.33771388263153 L 868.5 -156.33771388263153 L 868.51 -156.33771388263153 L 869.5 -158.33771388263165 L 869.51 -158.33771388263165 L 870.5 -160.33771388263165 L 870.51 -160.33771388263165 L 871.5 -162.33771388263153 L 871.51 -162.33771388263153 L 872.5 -164.33771388263153 L 872.51 -164.33771388263153 L 873.5 -166.33771388263153 L 873.51 -166.33771388263153 L 874.5 -168.33771388263153 L 874.51 -168.33771388263153 L 875.5 -170.33771388263165 L 875.51 -170.33771388263165 L 876.5 -172.33771388263165 L 876.51 -172.33771388263165 L 877.5 -174.33771388263165 L 877.51 -174.33771388263165 L 878.5 -176.33771388263165 L 878.51 -176.33771388263165 L 879.5 -178.33771388263153 L 879.51 -178.33771388263153 L 880.5 -180.33771388263153 L 880.51 -180.33771388263153 L 881.5 -182.33771388263165 L 881.51 -182.33771388263165 L 882.5 -184.33771388263165 L 882.51 -184.33771388263165 L 883.5 -186.33771388263165 L 883.51 -186.33771388263165 L 884.5 -188.33771388263153 L 884.51 -188.33771388263153 L 885.5 -190.33771388263153 L 885.51 -190.33771388263153 L 886.5 -192.33771388263153 L 886.51 -192.33771388263153 L 887.5 -194.33771388263165 L 887.51 -194.33771388263165 L 888.5 -196.33771388263165 L 888.51 -196.33771388263165 L 889.5 -198.33771388263165 L 889.51 -198.33771388263165 L 890.5 -200.33771388263165 L 890.51 -200.33771388263165 L 891.5 -202.33771388263165 L 891.51 -202.33771388263165 L 892.5 -204.33771388263176 L 892.51 -204.33771388263176 L 893.5 -206.33771388263176 L 893.51 -206.33771388263176 L 894.5 -208.33771388263165 L 894.51 -208.33771388263165 L 895.5 -210.33771388263165 L 895.51 -210.33771388263165 L 896.5 -212.33771388263165 L 896.51 -212.33771388263165 L 897.4999999999999 -214.33771388263153 L 897.5099999999999 -214.33771388263153 L 898.5 -216.33771388263153 L 898.51 -216.33771388263153 L 899.5 -218.33771388263153 L 899.51 -218.33771388263153 L 900.5 -220.33771388263165 L 900.51 -220.33771388263165 L 901.5 -222.33771388263165 L 901.51 -222.33771388263165 L 902.5 -224.33771388263165 L 902.51 -224.33771388263165 L 903.5 -226.33771388263165 L 903.51 -226.33771388263165 L 904.5 -228.33771388263176 L 904.51 -228.33771388263176 L 905.5 -230.33771388263176 L 905.51 -230.33771388263176 L 906.5 -232.33771388263176 L 906.51 -232.33771388263176 L 907.5 -234.33771388263165 L 907.51 -234.33771388263165 L 908.5 -236.33771388263165 L 908.51 -236.33771388263165 L 909.5 -238.33771388263165 L 909.51 -238.33771388263165 L 910.5 -240.33771388263165 L 910.51 -240.33771388263165 L 911.5 -242.33771388263153 L 911.51 -242.33771388263153 L 912.5 -244.33771388263153 L 912.51 -244.33771388263153 L 913.5 -246.33771388263165 L 913.51 -246.33771388263165 L 914.5 -248.33771388263165 L 914.51 -248.33771388263165 L 915.5 -250.33771388263165 L 915.51 -250.33771388263165 L 916.5 -252.33771388263165 L 916.51 -252.33771388263165 L 917.5 -254.33771388263176 L 917.51 -254.33771388263176 L 918.5 -256.33771388263176 L 918.51 -256.33771388263176 L 919.5 -258.33771388263176 L 919.51 -258.33771388263176 L 920.5 -260.33771388263176 L 920.51 -260.33771388263176 L 921.5 -262.33771388263165 L 921.51 -262.33771388263165 L 922.5 -264.33771388263165 L 922.51 -264.33771388263165 L 923.5 -266.33771388263176 L 923.51 -266.33771388263176 L 924.4999999999999 -268.33771388263153 L 924.5099999999999 -268.33771388263153 L 925.5 -270.33771388263165 L 925.51 -270.33771388263165 L 926.5 -272.33771388263165 L 926.51 -272.33771388263165 L 927.5 -274.33771388263165 L 927.51 -274.33771388263165 L 928.5 -276.33771388263165 L 928.51 -276.33771388263165 L 929.5 -278.33771388263165 L 929.51 -278.33771388263165 L 930.5 -280.33771388263176 L 930.51 -280.33771388263176 L 931.5 -282.33771388263176 L 931.51 -282.33771388263176 L 932.5 -284.33771388263176 L 932.51 -284.33771388263176 L 933.5 -286.33771388263176 L 933.51 -286.33771388263176 L 934.5 -288.3377138826319 L 934.51 -288.3377138826319 L 935.5 -290.33771388263165 L 935.51 -290.33771388263165 L 936.5 -292.33771388263176 L 936.51 -292.33771388263176 L 937.5 -294.33771388263176 L 937.51 -294.33771388263176 L 938.4999999999999 -296.33771388263165 L 938.5099999999999 -296.33771388263165 L 939.5 -298.33771388263165 L 939.51 -298.33771388263165 L 940.5 -300.33771388263165 L 940.51 -300.33771388263165 L 941.5 -302.33771388263165 L 941.51 -302.33771388263165 L 942.5 -304.33771388263176 L 942.51 -304.33771388263176 L 943.5 -306.33771388263176 L 943.51 -306.33771388263176 L 944.5 -308.33771388263176 L 944.51 -308.33771388263176 L 945.5 -310.33771388263176 L 945.51 -310.33771388263176 L 946.5 -312.3377138826319 L 946.51 -312.3377138826319 L 947.5 -314.3377138826319 L 947.51 -314.3377138826319 L 948.5 -316.33771388263165 L 948.51 -316.33771388263165 L 949.5 -318.33771388263176 L 949.51 -318.33771388263176 L 950.5 -320.33771388263176 L 950.51 -320.33771388263176 L 951.5 -322.33771388263176 L 951.51 -322.33771388263176 L 952.5 -324.33771388263165 L 952.51 -324.33771388263165 L 953.5 -326.33771388263165 L 953.51 -326.33771388263165 L 954.5 -328.33771388263165 L 954.51 -328.33771388263165 L 955.5 -330.33771388263176 L 955.51 -330.33771388263176 L 956.5 -332.33771388263176 L 956.51 -332.33771388263176 L 957.5 -334.33771388263176 L 957.51 -334.33771388263176 L 958.5 -336.33771388263176 L 958.51 -336.33771388263176 L 959.5 -338.3377138826319 L 959.51 -338.3377138826319 L 960.5 -340.3377138826319 L 960.51 -340.3377138826319 L 961.5 -342.3377138826319 L 961.51 -342.3377138826319 L 962.5 -344.33771388263176 L 962.51 -344.33771388263176 L 963.5 -346.33771388263176 L 963.51 -346.33771388263176 L 964.5 -348.33771388263176 L 964.51 -348.33771388263176 L 965.4999999999999 -350.33771388263165 L 965.5099999999999 -350.33771388263165 L 966.5 -352.33771388263165 L 966.51 -352.33771388263165 L 967.5 -354.33771388263176 L 967.51 -354.33771388263176 L 968.5 -356.33771388263176 L 968.51 -356.33771388263176 L 969.5 -358.33771388263176 L 969.51 -358.33771388263176 L 970.5 -360.33771388263176 L 970.51 -360.33771388263176 L 971.5 -362.33771388263176 L 971.51 -362.33771388263176 L 972.5 -364.3377138826319 L 972.51 -364.3377138826319 L 973.5 -366.3377138826319 L 973.51 -366.3377138826319 L 974.5 -368.3377138826319 L 974.51 -368.3377138826319 L 975.5 -370.3377138826319 L 975.51 -370.3377138826319 L 976.5 -372.33771388263176 L 976.51 -372.33771388263176 L 977.5 -374.33771388263176 L 977.51 -374.33771388263176 L 978.5 -376.3377138826319 L 978.51 -376.3377138826319 L 979.4999999999999 -378.33771388263165 L 979.5099999999999 -378.33771388263165 L 980.5 -380.33771388263176 L 980.51 -380.33771388263176 L 981.5 -382.33771388263176 L 981.51 -382.33771388263176 L 982.5 -384.33771388263176 L 982.51 -384.33771388263176 L 983.5 -386.33771388263176 L 983.51 -386.33771388263176 L 984.5 -388.3377138826319 L 984.51 -388.3377138826319 L 985.5 -390.3377138826319 L 985.51 -390.3377138826319 L 986.5 -392.3377138826319 L 986.51 -392.3377138826319 L 987.5 -394.3377138826319 L 987.51 -394.3377138826319 L 988.5 -396.3377138826319 L 988.51 -396.3377138826319 L 989.5 -398.33771388263176 L 989.51 -398.33771388263176 L 990.5 -400.33771388263176 L 990.51 -400.33771388263176 L 991.5 -402.3377138826319 L 991.51 -402.3377138826319 L 992.5 -404.3377138826319 L 992.51 -404.3377138826319 L 993.5 -406.33771388263176 L 993.51 -406.33771388263176 L 994.5 -408.33771388263176 L 994.51 -408.33771388263176 L 995.5 -410.33771388263176 L 995.51 -410.33771388263176 L 996.5 -412.33771388263176 L 996.51 -412.33771388263176 L 997.5 -414.3377138826319 L 997.51 -414.3377138826319 L 998.5 -416.3377138826319 L 998.51 -416.3377138826319 L 999.5 -418.3377138826319 L 999.51 -418.3377138826319 L 1000.5 -420.3377138826319 L 1000.51 -420.3377138826319 L 1001.5 -422.337713882632 L 1001.51 -422.337713882632 L 1002.5 -424.337713882632 L 1002.51 -424.337713882632 L 1003.5 -426.3377138826319 L 1003.51 -426.3377138826319 L 1004.5 -428.3377138826319 L 1004.51 -428.3377138826319 L 1005.5 -430.3377138826319 L 1005.51 -430.3377138826319 L 1006.5 -432.33771388263176 L 1006.51 -432.33771388263176 L 1007.5 -434.33771388263176 L 1007.51 -434.33771388263176 L 1008.5 -436.33771388263176 L 1008.51 -436.33771388263176 L 1009.5 -438.33771388263176 L 1009.51 -438.33771388263176 L 1010.5 -440.3377138826319 L 1010.51 -440.3377138826319 L 1011.5 -442.3377138826319 L 1011.51 -442.3377138826319 L 1012.5 -444.3377138826319 L 1012.51 -444.3377138826319 L 1013.5 -446.3377138826319 L 1013.51 -446.3377138826319 L 1014.5 -448.337713882632 L 1014.51 -448.337713882632 L 1015.5 -450.337713882632 L 1015.51 -450.337713882632 L 1016.5 -452.337713882632 L 1016.51 -452.337713882632 L 1017.5 -454.3377138826319 L 1017.51 -454.3377138826319 L 1018.5 -456.3377138826319 L 1018.51 -456.3377138826319 L 1019.5 -458.3377138826319 L 1019.51 -458.3377138826319 L 1020.5 -460.33771388263176 L 1020.51 -460.33771388263176 L 1021.5 -462.33771388263176 L 1021.51 -462.33771388263176 L 1022.5 -464.3377138826319 L 1022.51 -464.3377138826319 L 1023.5 -466.3377138826319 L 1023.51 -466.3377138826319 L 1024.5 -468.3377138826319 L 1024.51 -468.3377138826319 L 1025.5 -470.3377138826319 L 1025.51 -470.3377138826319 L 1026.5 -472.337713882632 L 1026.51 -472.337713882632 L 1027.5 -474.337713882632 L 1027.51 -474.337713882632 L 1028.5 -476.337713882632 L 1028.51 -476.337713882632 L 1029.5 -478.337713882632 L 1029.51 -478.337713882632 L 1030.5 -480.33771388263176 L 1030.51 -480.33771388263176 L 1031.5 -482.337713882632 L 1031.51 -482.337713882632 L 1032.5 -484.337713882632 L 1032.51 -484.337713882632 L 1033.5 -486.337713882632 L 1033.51 -486.337713882632 L 1034.5 -488.33771388263176 L 1034.51 -488.33771388263176 L 1035.5 -490.33771388263176 L 1035.51 -490.33771388263176 L 1036.5 -492.33771388263176 L 1036.51 -492.33771388263176 L 1037.5 -494.337713882632 L 1037.51 -494.337713882632 L 1038.5 -496.337713882632 L 1038.51 -496.337713882632 L 1039.5 -498.337713882632 L 1039.51 -498.337713882632 L 1040.5 -500.337713882632 L 1040.51 -500.337713882632 L 1041.5 -502.337713882632 L 1041.51 -502.337713882632 L 1042.5 -504.337713882632 L 1042.51 -504.337713882632 L 1043.5 -506.337713882632 L 1043.51 -506.337713882632 L 1044.5 -508.337713882632 L 1044.51 -508.337713882632 L 1045.5 -510.337713882632 L 1045.51 -510.337713882632 L 1046.5 -512.337713882632 L 1046.51 -512.337713882632 L 1047.5 -514.3377138826318 L 1047.51 -514.3377138826318 L 1048.5 -516.3377138826318 L 1048.51 -516.3377138826318 L 1049.5 -518.3377138826318 L 1049.51 -518.3377138826318 L 1050.5 -520.337713882632 L 1050.51 -520.337713882632 L 1051.5 -522.337713882632 L 1051.51 -522.337713882632 L 1052.5 -524.337713882632 L 1052.51 -524.337713882632 L 1053.5 -526.337713882632 L 1053.51 -526.337713882632 L 1054.5 -528.337713882632 L 1054.51 -528.337713882632 L 1055.5 -530.337713882632 L 1055.51 -530.337713882632 L 1056.5 -532.337713882632 L 1056.51 -532.337713882632 L 1057.5 -534.337713882632 L 1057.51 -534.337713882632 L 1058.5 -536.337713882632 L 1058.51 -536.337713882632 L 1059.5 -538.337713882632 L 1059.51 -538.337713882632 L 1060.5 -540.337713882632 L 1060.51 -540.337713882632 L 1061.5 -542.3377138826318 L 1061.51 -542.3377138826318 L 1062.5 -544.337713882632 L 1062.51 -544.337713882632 L 1063.5 -546.337713882632 L 1063.51 -546.337713882632 L 1064.5 -548.337713882632 L 1064.51 -548.337713882632 L 1065.5 -550.337713882632 L 1065.51 -550.337713882632 L 1066.5 -552.337713882632 L 1066.51 -552.337713882632 L 1067.5 -554.337713882632 L 1067.51 -554.337713882632 L 1068.5 -556.337713882632 L 1068.51 -556.337713882632 L 1069.5 -558.337713882632 L 1069.51 -558.337713882632 L 1070.5 -560.337713882632 L 1070.51 -560.337713882632 L 1071.5 -562.337713882632 L 1071.51 -562.337713882632 L 1072.5 -564.337713882632 L 1072.51 -564.337713882632 L 1073.5 -566.337713882632 L 1073.51 -566.337713882632 L 1074.5 -568.337713882632 L 1074.51 -568.337713882632 L 1075.5 -570.337713882632 L 1075.51 -570.337713882632 L 1076.5 -572.337713882632 L 1076.51 -572.337713882632 L 1077.5 -574.337713882632 L 1077.51 -574.337713882632 L 1078.5 -576.337713882632 L 1078.51 -576.337713882632 L 1079.5 -578.337713882632 L 1079.51 -578.337713882632 L 1080.5 -580.337713882632 L 1080.51 -580.337713882632 L 1081.5 -582.337713882632 L 1081.51 -582.337713882632 L 1082.5 -584.337713882632 L 1082.51 -584.337713882632 L 1083.5 -586.337713882632 L 1083.51 -586.337713882632 L 1084.5 -588.337713882632 L 1084.51 -588.337713882632 L 1085.5 -590.337713882632 L 1085.51 -590.337713882632 L 1086.5 -592.337713882632 L 1086.51 -592.337713882632 L 1087.5 -594.337713882632 L 1087.51 -594.337713882632 L 1088.5 -596.337713882632 L 1088.51 -596.337713882632 L 1089.5 -598.337713882632 L 1089.51 -598.337713882632 L 1090.5 -600.337713882632 L 1090.51 -600.337713882632 L 1091.5 -602.337713882632 L 1091.51 -602.337713882632 L 1092.5 -604.337713882632 L 1092.51 -604.337713882632 L 1093.5 -606.337713882632 L 1093.51 -606.337713882632 L 1094.5 -608.337713882632 L 1094.51 -608.337713882632 L 1095.5 -610.337713882632 L 1095.51 -610.337713882632 L 1096.5 -612.3377138826322 L 1096.51 -612.3377138826322 L 1097.5 -614.337713882632 L 1097.51 -614.337713882632 L 1098.5 -616.337713882632 L 1098.51 -616.337713882632 L 1099.5 -618.337713882632 L 1099.51 -618.337713882632 L 1100.5 -620.337713882632 L 1100.51 -620.337713882632 L 1101.5 -622.337713882632 L 1101.51 -622.337713882632 L 1102.5 -624.3377138826322 L 1102.51 -624.3377138826322 L 1103.5 -626.3377138826322 L 1103.51 -626.3377138826322 L 1104.5 -628.337713882632 L 1104.51 -628.337713882632 L 1105.5 -630.337713882632 L 1105.51 -630.337713882632 L 1106.5 -632.337713882632 L 1106.51 -632.337713882632 L 1107.5 -634.337713882632 L 1107.51 -634.337713882632 L 1108.5 -636.337713882632 L 1108.51 -636.337713882632 L 1109.5 -638.3377138826322 L 1109.51 -638.3377138826322 L 1110.5 -640.3377138826322 L 1110.51 -640.3377138826322 L 1111.5 -642.337713882632 L 1111.51 -642.337713882632 L 1112.5 -644.337713882632 L 1112.51 -644.337713882632 L 1113.5 -646.337713882632 L 1113.51 -646.337713882632 L 1114.5 -648.337713882632 L 1114.51 -648.337713882632 L 1115.5 -650.3377138826322 L 1115.51 -650.3377138826322 L 1116.5 -652.3377138826322 L 1116.51 -652.3377138826322 L 1117.5 -654.337713882632 L 1117.51 -654.337713882632 L 1118.5 -656.337713882632 L 1118.51 -656.337713882632 L 1119.5 -658.337713882632 L 1119.51 -658.337713882632 L 1120.5 -660.337713882632 L 1120.51 -660.337713882632 L 1121.5 -662.3377138826322 L 1121.51 -662.3377138826322 L 1122.5 -664.3377138826322 L 1122.51 -664.3377138826322 L 1123.5 -666.3377138826322 L 1123.51 -666.3377138826322 L 1124.5 -668.337713882632 L 1124.51 -668.337713882632 L 1125.5 -670.337713882632 L 1125.51 -670.337713882632 L 1126.5 -672.337713882632 L 1126.51 -672.337713882632 L 1127.5 -674.337713882632 L 1127.51 -674.337713882632 L 1128.5 -676.3377138826322 L 1128.51 -676.3377138826322 L 1129.5 -678.3377138826322 L 1129.51 -678.3377138826322 L 1130.5 -680.3377138826322 L 1130.51 -680.3377138826322 L 1131.5 -682.337713882632 L 1131.51 -682.337713882632 L 1132.5 -684.337713882632 L 1132.51 -684.337713882632 L 1133.5 -686.337713882632 L 1133.51 -686.337713882632 L 1134.5 -688.3377138826322 L 1134.51 -688.3377138826322 L 1135.5 -690.3377138826322 L 1135.51 -690.3377138826322 L 1136.5 -692.3377138826322 L 1136.51 -692.3377138826322 L 1137.5 -694.3377138826322 L 1137.51 -694.3377138826322 L 1138.5 -696.337713882632 L 1138.51 -696.337713882632 L 1139.5 -698.337713882632 L 1139.51 -698.337713882632 L 1140.5 -700.3377138826322 L 1140.51 -700.3377138826322 L 1141.5 -702.3377138826322 L 1141.51 -702.3377138826322 L 1142.5 -704.3377138826322 L 1142.51 -704.3377138826322 L 1143.5 -706.3377138826322 L 1143.51 -706.3377138826322 L 1144.5 -708.3377138826322 L 1144.51 -708.3377138826322 L 1145.5 -710.337713882632 L 1145.51 -710.337713882632 L 1146.5 -712.337713882632 L 1146.51 -712.337713882632 L 1147.5 -714.3377138826322 L 1147.51 -714.3377138826322 L 1148.5 -716.3377138826322 L 1148.51 -716.3377138826322 L 1149.5 -718.3377138826322 L 1149.51 -718.3377138826322 L 1150.5 -720.3377138826322 L 1150.51 -720.3377138826322 L 1151.5 -722.337713882632 L 1151.51 -722.337713882632 L 1152.5 -724.337713882632 L 1152.51 -724.337713882632 L 1153.5 -726.3377138826322 L 1153.51 -726.3377138826322 L 1154.5 -728.3377138826322 L 1154.51 -728.3377138826322 L 1155.5 -730.3377138826322 L 1155.51 -730.3377138826322 L 1156.5 -732.3377138826322 L 1156.51 -732.3377138826322 L 1157.5 -734.3377138826322 L 1157.51 -734.3377138826322 L 1158.5 -736.337713882632 L 1158.51 -736.337713882632 L 1159.5 -738.3377138826322 L 1159.51 -738.3377138826322 L 1160.5 -740.3377138826322 L 1160.51 -740.3377138826322 L 1161.5 -742.3377138826322 L 1161.51 -742.3377138826322 L 1162.5 -744.3377138826322 L 1162.51 -744.3377138826322 L 1163.5 -746.3377138826322 L 1163.51 -746.3377138826322 L 1164.5 -748.3377138826322 L 1164.51 -748.3377138826322 L 1165.5 -750.3377138826322 L 1165.51 -750.3377138826322 L 1166.5 -752.3377138826322 L 1166.51 -752.3377138826322 L 1167.5 -754.3377138826322 L 1167.51 -754.3377138826322 L 1168.5 -756.3377138826322 L 1168.51 -756.3377138826322 L 1169.5 -758.3377138826322 L 1169.51 -758.3377138826322 L 1170.5 -760.3377138826322 L 1170.51 -760.3377138826322 L 1171.5 -762.3377138826322 L 1171.51 -762.3377138826322 L 1172.5 -764.3377138826322 L 1172.51 -764.3377138826322 L 1173.5 -766.3377138826322 L 1173.51 -766.3377138826322 L 1174.5 -768.3377138826322 L 1174.51 -768.3377138826322 L 1175.5 -770.3377138826322 L 1175.51 -770.3377138826322 L 1176.5 -772.3377138826322 L 1176.51 -772.3377138826322 L 1177.5 -774.3377138826322 L 1177.51 -774.3377138826322 L 1178.5 -776.3377138826322 L 1178.51 -776.3377138826322 L 1179.5 -778.3377138826322 L 1179.51 -778.3377138826322 L 1180.5 -780.3377138826322 L 1180.51 -780.3377138826322 L 1181.5 -782.3377138826322 L 1181.51 -782.3377138826322 L 1182.5 -784.3377138826322 L 1182.51 -784.3377138826322 L 1183.5 -786.3377138826322 L 1183.51 -786.3377138826322 L 1184.5 -788.3377138826322 L 1184.51 -788.3377138826322 L 1185.5 -790.3377138826322 L 1185.51 -790.3377138826322 L 1186.5 -792.3377138826322 L 1186.51 -792.3377138826322 L 1187.5 -794.3377138826322 L 1187.51 -794.3377138826322 L 1188.5 -796.3377138826322 L 1188.51 -796.3377138826322 L 1189.5 -798.3377138826322 L 1189.51 -798.3377138826322 L 1190.5 -800.3377138826322 L 1190.51 -800.3377138826322 L 1191.5 -802.3377138826322 L 1191.51 -802.3377138826322 L 1192.5 -804.3377138826322 L 1192.51 -804.3377138826322 L 1193.5 -806.3377138826322 L 1193.51 -806.3377138826322 L 1194.5 -808.3377138826322 L 1194.51 -808.3377138826322 L 1195.5 -810.3377138826322 L 1195.51 -810.3377138826322 L 1196.5 -812.3377138826322 L 1196.51 -812.3377138826322 L 1197.5 -814.3377138826322 L 1197.51 -814.3377138826322 L 1198.5 -816.3377138826322 L 1198.51 -816.3377138826322 L 1199.5 -818.3377138826322 L 1199.51 -818.3377138826322 L 1200.5 -820.3377138826322 L 1200.51 -820.3377138826322 L 1201.5 -822.3377138826322 L 1201.51 -822.3377138826322 L 1202.5 -824.3377138826322 L 1202.51 -824.3377138826322 L 1203.5 -826.3377138826322 L 1203.51 -826.3377138826322 L 1204.5 -828.3377138826322 L 1204.51 -828.3377138826322 L 1205.5 -830.3377138826322 L 1205.51 -830.3377138826322 L 1206.5 -832.3377138826322 L 1206.51 -832.3377138826322 L 1207.5 -834.3377138826322 L 1207.51 -834.3377138826322 L 1208.5 -836.3377138826322 L 1208.51 -836.3377138826322 L 1209.5 -838.3377138826322 L 1209.51 -838.3377138826322 L 1210.5 -840.3377138826322 L 1210.51 -840.3377138826322 L 1211.5 -842.3377138826322 L 1211.51 -842.3377138826322 L 1212.5 -844.3377138826324 L 1212.51 -844.3377138826324 L 1213.5 -846.3377138826322 L 1213.51 -846.3377138826322 L 1214.5 -848.3377138826322 L 1214.51 -848.3377138826322 L 1215.5 -850.3377138826322 L 1215.51 -850.3377138826322 L 1216.5 -852.3377138826322 L 1216.51 -852.3377138826322 L 1217.5 -854.3377138826322 L 1217.51 -854.3377138826322 L 1218.5 -856.3377138826324 L 1218.51 -856.3377138826324 L 1219.5 -858.3377138826324 L 1219.51 -858.3377138826324 L 1220.5 -860.3377138826322 L 1220.51 -860.3377138826322 L 1221.5 -862.3377138826322 L 1221.51 -862.3377138826322 L 1222.5 -864.3377138826322 L 1222.51 -864.3377138826322 L 1223.5 -866.3377138826322 L 1223.51 -866.3377138826322 L 1224.5 -868.3377138826324 L 1224.51 -868.3377138826324 L 1225.5 -870.3377138826324 L 1225.51 -870.3377138826324 L 1226.5 -872.3377138826324 L 1226.51 -872.3377138826324 L 1227.5 -874.3377138826322 L 1227.51 -874.3377138826322 L 1228.5 -876.3377138826322 L 1228.51 -876.3377138826322 L 1229.5 -878.3377138826322 L 1229.51 -878.3377138826322 L 1230.5 -880.3377138826322 L 1230.51 -880.3377138826322 L 1231.5 -882.3377138826324 L 1231.51 -882.3377138826324 L 1232.5 -884.3377138826324 L 1232.51 -884.3377138826324 L 1233.5 -886.3377138826324 L 1233.51 -886.3377138826324 L 1234.5 -888.3377138826324 L 1234.51 -888.3377138826324 L 1235.5 -890.3377138826324 L 1235.51 -890.3377138826324 L 1236.5 -892.3377138826324 L 1236.51 -892.3377138826324 L 1237.5 -894.3377138826324 L 1237.51 -894.3377138826324 L 1238.5 -896.3377138826324 L 1238.51 -896.3377138826324 L 1239.5 -898.3377138826327 L 1239.51 -898.3377138826327 L 1240.5 -900.3377138826322 L 1240.51 -900.3377138826322 L 1241.5 -902.3377138826322 L 1241.51 -902.3377138826322 L 1242.5 -904.3377138826322 L 1242.51 -904.3377138826322 L 1243.5 -906.3377138826324 L 1243.51 -906.3377138826324 L 1244.5 -908.3377138826324 L 1244.51 -908.3377138826324 L 1245.5 -910.3377138826324 L 1245.51 -910.3377138826324 L 1246.5 -912.3377138826324 L 1246.51 -912.3377138826324 L 1247.4999999999998 -914.337713882632 L 1247.5099999999998 -914.337713882632 L 1248.4999999999998 -916.3377138826322 L 1248.5099999999998 -916.3377138826322 L 1249.4999999999998 -918.3377138826322 L 1249.5099999999998 -918.3377138826322 L 1250.4999999999998 -920.3377138826322 L 1250.5099999999998 -920.3377138826322 L 1251.5 -922.3377138826322 L 1251.51 -922.3377138826322 L 1252.5 -924.3377138826322 L 1252.51 -924.3377138826322 L 1253.5 -926.3377138826322 L 1253.51 -926.3377138826322 L 1254.5 -928.3377138826322 L 1254.51 -928.3377138826322 L 1255.5 -930.3377138826322 L 1255.51 -930.3377138826322 L 1256.5 -932.3377138826324 L 1256.51 -932.3377138826324 L 1257.5 -934.3377138826324 L 1257.51 -934.3377138826324 L 1258.5 -936.3377138826324 L 1258.51 -936.3377138826324 L 1259.5 -938.3377138826324 L 1259.51 -938.3377138826324 L 1260.5 -940.3377138826324 L 1260.51 -940.3377138826324 L 1261.5 -942.3377138826324 L 1261.51 -942.3377138826324 L 1262.5 -944.3377138826324 L 1262.51 -944.3377138826324 L 1263.5 -946.3377138826324 L 1263.51 -946.3377138826324 L 1264.5 -948.3377138826324 L 1264.51 -948.3377138826324 L 1265.5 -950.3377138826327 L 1265.51 -950.3377138826327 L 1266.5 -952.3377138826327 L 1266.51 -952.3377138826327 L 1267.5 -954.3377138826327 L 1267.51 -954.3377138826327 L 1268.5 -956.3377138826322 L 1268.51 -956.3377138826322 L 1269.5 -958.3377138826324 L 1269.51 -958.3377138826324 L 1270.5 -960.3377138826324 L 1270.51 -960.3377138826324 L 1271.5 -962.3377138826324 L 1271.51 -962.3377138826324 L 1272.5 -964.3377138826324 L 1272.51 -964.3377138826324 L 1273.5 -966.3377138826324 L 1273.51 -966.3377138826324 L 1274.4999999999998 -968.3377138826322 L 1274.5099999999998 -968.3377138826322 L 1275.4999999999998 -970.3377138826322 L 1275.5099999999998 -970.3377138826322 L 1276.4999999999998 -972.3377138826322 L 1276.5099999999998 -972.3377138826322 L 1277.4999999999998 -974.3377138826322 L 1277.5099999999998 -974.3377138826322 L 1278.4999999999998 -976.3377138826322 L 1278.5099999999998 -976.3377138826322 L 1279.5 -978.3377138826322 L 1279.51 -978.3377138826322 L 1280.5 -980.3377138826322 L 1280.51 -980.3377138826322 L 1281.5 -982.3377138826324 L 1281.51 -982.3377138826324 L 1282.5 -984.3377138826324 L 1282.51 -984.3377138826324 L 1283.5 -986.3377138826324 L 1283.51 -986.3377138826324 L 1284.5 -988.3377138826324 L 1284.51 -988.3377138826324 L 1285.5 -990.3377138826324 L 1285.51 -990.3377138826324 L 1286.5 -992.3377138826324 L 1286.51 -992.3377138826324 L 1287.5 -994.3377138826324 L 1287.51 -994.3377138826324 L 1288.5 -996.3377138826324 L 1288.51 -996.3377138826324 L 1289.5 -998.3377138826324 L 1289.51 -998.3377138826324 L 1290.5 -1000.3377138826327 L 1290.51 -1000.3377138826327 L 1291.5 -1002.3377138826327 L 1291.51 -1002.3377138826327 L 1292.5 -1004.3377138826327 L 1292.51 -1004.3377138826327 L 1293.5 -1006.3377138826327 L 1293.51 -1006.3377138826327 L 1294.5 -1008.3377138826327 L 1294.51 -1008.3377138826327 L 1295.5 -1010.3377138826324 L 1295.51 -1010.3377138826324 L 1296.5 -1012.3377138826324 L 1296.51 -1012.3377138826324 L 1297.5 -1014.3377138826324 L 1297.51 -1014.3377138826324 L 1298.5 -1016.3377138826324 L 1298.51 -1016.3377138826324 L 1299.5 -1018.3377138826324 L 1299.51 -1018.3377138826324 L 1300.5 -1020.3377138826324 L 1300.51 -1020.3377138826324 L 1301.5 -1022.3377138826324 L 1301.51 -1022.3377138826324 L 1302.4999999999998 -1024.3377138826322 L 1302.5099999999998 -1024.3377138826322 L 1303.4999999999998 -1026.3377138826322 L 1303.5099999999998 -1026.3377138826322 L 1304.4999999999998 -1028.3377138826322 L 1304.5099999999998 -1028.3377138826322 L 1305.4999999999998 -1030.3377138826322 L 1305.5099999999998 -1030.3377138826322 L 1306.5 -1032.3377138826322 L 1306.51 -1032.3377138826322 L 1307.5 -1034.3377138826324 L 1307.51 -1034.3377138826324 L 1308.5 -1036.3377138826324 L 1308.51 -1036.3377138826324 L 1309.5 -1038.3377138826324 L 1309.51 -1038.3377138826324 L 1310.5 -1040.3377138826324 L 1310.51 -1040.3377138826324 L 1311.5 -1042.3377138826324 L 1311.51 -1042.3377138826324 L 1312.5 -1044.3377138826324 L 1312.51 -1044.3377138826324 L 1313.5 -1046.3377138826324 L 1313.51 -1046.3377138826324 L 1314.5 -1048.3377138826324 L 1314.51 -1048.3377138826324 L 1315.5 -1050.3377138826327 L 1315.51 -1050.3377138826327 L 1316.5 -1052.3377138826327 L 1316.51 -1052.3377138826327 L 1317.5 -1054.3377138826327 L 1317.51 -1054.3377138826327 L 1318.5 -1056.3377138826327 L 1318.51 -1056.3377138826327 L 1319.5 -1058.3377138826327 L 1319.51 -1058.3377138826327 L 1320.5 -1060.3377138826327 L 1320.51 -1060.3377138826327 L 1321.5 -1062.3377138826327 L 1321.51 -1062.3377138826327 L 1322.5 -1064.3377138826324 L 1322.51 -1064.3377138826324 L 1323.5 -1066.3377138826324 L 1323.51 -1066.3377138826324 L 1324.5 -1068.3377138826324 L 1324.51 -1068.3377138826324 L 1325.5 -1070.3377138826324 L 1325.51 -1070.3377138826324 L 1326.5 -1072.3377138826324 L 1326.51 -1072.3377138826324 L 1327.5 -1074.3377138826324 L 1327.51 -1074.3377138826324 L 1328.5 -1076.3377138826327 L 1328.51 -1076.3377138826327 L 1329.4999999999998 -1078.3377138826322 L 1329.5099999999998 -1078.3377138826322 L 1330.4999999999998 -1080.3377138826322 L 1330.5099999999998 -1080.3377138826322 L 1331.4999999999998 -1082.3377138826322 L 1331.5099999999998 -1082.3377138826322 L 1332.4999999999998 -1084.3377138826324 L 1332.5099999999998 -1084.3377138826324 L 1333.4999999999998 -1086.3377138826324 L 1333.5099999999998 -1086.3377138826324 L 1334.5 -1088.3377138826324 L 1334.51 -1088.3377138826324 L 1335.5 -1090.3377138826324 L 1335.51 -1090.3377138826324 L 1336.5 -1092.3377138826324 L 1336.51 -1092.3377138826324 L 1337.5 -1094.3377138826324 L 1337.51 -1094.3377138826324 L 1338.5 -1096.3377138826324 L 1338.51 -1096.3377138826324 L 1339.5 -1098.3377138826324 L 1339.51 -1098.3377138826324 L 1340.5 -1100.3377138826327 L 1340.51 -1100.3377138826327 L 1341.5 -1102.3377138826327 L 1341.51 -1102.3377138826327 L 1342.5 -1104.3377138826327 L 1342.51 -1104.3377138826327 L 1343.5 -1106.3377138826327 L 1343.51 -1106.3377138826327 L 1344.5 -1108.3377138826327 L 1344.51 -1108.3377138826327 L 1345.5 -1110.3377138826327 L 1345.51 -1110.3377138826327 L 1346.5 -1112.3377138826327 L 1346.51 -1112.3377138826327 L 1347.5 -1114.3377138826327 L 1347.51 -1114.3377138826327 L 1348.5 -1116.3377138826327 L 1348.51 -1116.3377138826327 L 1349.5 -1118.3377138826324 L 1349.51 -1118.3377138826324 L 1350.5 -1120.3377138826324 L 1350.51 -1120.3377138826324 L 1351.5 -1122.3377138826324 L 1351.51 -1122.3377138826324 L 1352.5 -1124.3377138826324 L 1352.51 -1124.3377138826324 L 1353.5 -1126.3377138826327 L 1353.51 -1126.3377138826327 L 1354.5 -1128.3377138826327 L 1354.51 -1128.3377138826327 L 1355.5 -1130.3377138826327 L 1355.51 -1130.3377138826327 L 1356.4999999999998 -1132.3377138826322 L 1356.5099999999998 -1132.3377138826322 L 1357.4999999999998 -1134.3377138826324 L 1357.5099999999998 -1134.3377138826324 L 1358.4999999999998 -1136.3377138826324 L 1358.5099999999998 -1136.3377138826324 L 1359.4999999999998 -1138.3377138826324 L 1359.5099999999998 -1138.3377138826324 L 1360.4999999999998 -1140.3377138826324 L 1360.5099999999998 -1140.3377138826324 L 1361.5 -1142.3377138826324 L 1361.51 -1142.3377138826324 L 1362.5 -1144.3377138826324 L 1362.51 -1144.3377138826324 L 1363.5 -1146.3377138826324 L 1363.51 -1146.3377138826324 L 1364.5 -1148.3377138826324 L 1364.51 -1148.3377138826324 L 1365.5 -1150.3377138826324 L 1365.51 -1150.3377138826324 L 1366.5 -1152.3377138826327 L 1366.51 -1152.3377138826327 L 1367.5 -1154.3377138826327 L 1367.51 -1154.3377138826327 L 1368.5 -1156.3377138826327 L 1368.51 -1156.3377138826327 L 1369.5 -1158.3377138826327 L 1369.51 -1158.3377138826327 L 1370.5 -1160.3377138826327 L 1370.51 -1160.3377138826327 L 1371.5 -1162.3377138826327 L 1371.51 -1162.3377138826327 L 1372.5 -1164.3377138826327 L 1372.51 -1164.3377138826327 L 1373.5 -1166.3377138826327 L 1373.51 -1166.3377138826327 L 1374.5 -1168.337713882633 L 1374.51 -1168.337713882633 L 1375.5 -1170.337713882633 L 1375.51 -1170.337713882633 L 1376.5 -1172.337713882633 L 1376.51 -1172.337713882633 L 1377.5 -1174.3377138826324 L 1377.51 -1174.3377138826324 L 1378.5 -1176.3377138826327 L 1378.51 -1176.3377138826327 L 1379.5 -1178.3377138826327 L 1379.51 -1178.3377138826327 L 1380.5 -1180.3377138826327 L 1380.51 -1180.3377138826327 L 1381.5 -1182.3377138826327 L 1381.51 -1182.3377138826327 L 1382.5 -1184.3377138826327 L 1382.51 -1184.3377138826327 L 1383.5 -1186.3377138826327 L 1383.51 -1186.3377138826327 L 1384.4999999999998 -1188.3377138826324 L 1384.5099999999998 -1188.3377138826324 L 1385.4999999999998 -1190.3377138826324 L 1385.5099999999998 -1190.3377138826324 L 1386.4999999999998 -1192.3377138826324 L 1386.5099999999998 -1192.3377138826324 L 1387.4999999999998 -1194.3377138826324 L 1387.5099999999998 -1194.3377138826324 L 1388.5 -1196.3377138826324 L 1388.51 -1196.3377138826324 L 1389.5 -1198.3377138826324 L 1389.51 -1198.3377138826324 L 1390.5 -1200.3377138826324 L 1390.51 -1200.3377138826324 L 1391.5 -1202.3377138826327 L 1391.51 -1202.3377138826327 L 1392.5 -1204.3377138826327 L 1392.51 -1204.3377138826327 L 1393.5 -1206.3377138826327 L 1393.51 -1206.3377138826327 L 1394.5 -1208.3377138826327 L 1394.51 -1208.3377138826327 L 1395.5 -1210.3377138826327" stroke-opacity="0.8" stroke-linecap="round" stroke-linejoin="round" stroke-miterlimit="10" stroke-width="2.5"/><text fill="rgb(21,101,192)" stroke="none" font-family="geogebra-sans-serif, sans-serif" font-size="16px" font-style="normal" font-weight="normal" text-decoration="normal" x="327" y="881" text-anchor="start" dominant-baseline="alphabetic" fill-opacity="1">h</text><path fill="none" stroke="rgb(255,0,0)" paint-order="fill stroke markers" d=" M 467.53247856349464 645.59732899038 L 467.53247856349464 550.3759252403797" stroke-opacity="0.6980392156862745" stroke-linejoin="round" stroke-miterlimit="10" stroke-width="2.5" stroke-dasharray="10.5,8"/><path fill="none" stroke="rgb(255,0,0)" paint-order="fill stroke markers" d=" M 657.9752860634949 264.7117139903791 L 467.53247856349464 264.7117139903791" stroke-opacity="0.6980392156862745" stroke-linejoin="round" stroke-miterlimit="10" stroke-width="2.5" stroke-dasharray="10.5,8"/><path fill="none" stroke="rgb(255,0,0)" paint-order="fill stroke markers" d=" M 657.9752860634949 264.7117139903791 L 657.9752860634949 550.3759252403797" stroke-opacity="0.6980392156862745" stroke-linejoin="round" stroke-miterlimit="10" stroke-width="2.5" stroke-dasharray="10.5,8"/><path fill="rgb(110,109,115)" stroke="none" paint-order="stroke fill markers" d=" M 472.53247856349464 645.59732899038 C 472.53247856349464 648.358752739534 470.2939023126486 650.59732899038 467.53247856349464 650.59732899038 C 464.7710548143407 650.59732899038 462.53247856349464 648.358752739534 462.53247856349464 645.59732899038 C 462.53247856349464 642.835905241226 464.7710548143407 640.59732899038 467.53247856349464 640.59732899038 C 470.2939023126486 640.59732899038 472.53247856349464 642.835905241226 472.53247856349464 645.59732899038 Z" fill-opacity="1"/><path fill="none" stroke="rgb(0,0,0)" paint-order="fill stroke markers" d=" M 472.53247856349464 645.59732899038 C 472.53247856349464 648.358752739534 470.2939023126486 650.59732899038 467.53247856349464 650.59732899038 C 464.7710548143407 650.59732899038 462.53247856349464 648.358752739534 462.53247856349464 645.59732899038 C 462.53247856349464 642.835905241226 464.7710548143407 640.59732899038 467.53247856349464 640.59732899038 C 470.2939023126486 640.59732899038 472.53247856349464 642.835905241226 472.53247856349464 645.59732899038 Z" stroke-opacity="1" stroke-linecap="round" stroke-linejoin="round" stroke-miterlimit="10"/><text fill="rgb(110,109,115)" stroke="none" font-family="geogebra-sans-serif, sans-serif" font-size="16px" font-style="normal" font-weight="normal" text-decoration="normal" x="474" y="665" text-anchor="start" dominant-baseline="alphabetic" fill-opacity="1">A</text><path fill="rgb(21,101,192)" stroke="none" paint-order="stroke fill markers" d=" M 662.9752860634949 264.7117139903791 C 662.9752860634949 267.47313773953306 660.7367098126489 269.7117139903791 657.9752860634949 269.7117139903791 C 655.2138623143409 269.7117139903791 652.9752860634949 267.47313773953306 652.9752860634949 264.7117139903791 C 652.9752860634949 261.95029024122516 655.2138623143409 259.7117139903791 657.9752860634949 259.7117139903791 C 660.7367098126489 259.7117139903791 662.9752860634949 261.95029024122516 662.9752860634949 264.7117139903791 Z" fill-opacity="1"/><path fill="none" stroke="rgb(0,0,0)" paint-order="fill stroke markers" d=" M 662.9752860634949 264.7117139903791 C 662.9752860634949 267.47313773953306 660.7367098126489 269.7117139903791 657.9752860634949 269.7117139903791 C 655.2138623143409 269.7117139903791 652.9752860634949 267.47313773953306 652.9752860634949 264.7117139903791 C 652.9752860634949 261.95029024122516 655.2138623143409 259.7117139903791 657.9752860634949 259.7117139903791 C 660.7367098126489 259.7117139903791 662.9752860634949 261.95029024122516 662.9752860634949 264.7117139903791 Z" stroke-opacity="1" stroke-linecap="round" stroke-linejoin="round" stroke-miterlimit="10"/><text fill="rgb(21,101,192)" stroke="none" font-family="geogebra-sans-serif, sans-serif" font-size="16px" font-style="normal" font-weight="normal" text-decoration="normal" x="643" y="257" text-anchor="start" dominant-baseline="alphabetic" fill-opacity="1">B</text></g></g></svg>